<svg width="23" height="28" viewBox="0 0 23 28" fill="none" xmlns="http://www.w3.org/2000/svg">
<rect width="21" height="26" fill="black" fill-opacity="0" transform="translate(1 1)"/>
<path d="M10.4074 6.12432C11.8216 6.12432 12.9704 4.9772 12.9704 3.56219C12.9704 2.14675 11.8216 1 10.4074 1C8.99168 1 7.84375 2.14675 7.84375 3.56219C7.84375 4.9772 8.99168 6.12432 10.4074 6.12432Z" stroke="#0F2355"/>
<path d="M14.3679 20.6431C13.6868 23.0071 11.5066 24.7432 8.92532 24.7432C5.79943 24.7432 3.25737 22.202 3.25737 19.0782C3.25737 16.7659 4.65288 14.7757 6.64442 13.8963V11.4946C3.38298 12.4766 1 15.503 1 19.0782C1 23.4461 4.55523 27 8.92526 27C12.1099 27 14.8549 25.108 16.1135 22.3933L15.2187 20.6358C14.9675 20.6379 14.6765 20.6405 14.3679 20.6431Z" stroke="#0F2355"/>
<path d="M21.8362 23.6845L18.403 16.9373C18.1468 16.4324 17.6288 16.1146 17.0621 16.1146H12.6649V15.1123H16.4493C16.8272 15.1123 17.1449 14.9149 17.35 14.6304C17.4834 14.4452 17.5782 14.2299 17.5782 13.9838C17.5782 13.3608 17.0734 12.8554 16.4493 12.8554H14.1694H12.6649V9.4558C12.6649 8.52081 11.9714 7.19897 10.408 7.19897C9.16118 7.19897 8.15039 8.20954 8.15039 9.4558V16.8214C8.15039 18.0928 9.18148 19.1235 10.4534 19.1235H14.5912H16.1394L19.1541 25.0487C19.419 25.5705 19.9477 25.8717 20.4964 25.8717C20.7264 25.8717 20.9596 25.8191 21.1775 25.7076C21.9194 25.3315 22.2141 24.4251 21.8362 23.6845Z" stroke="#0F2355"/>
</svg>
