<svg width="25" height="19" viewBox="0 0 25 19" fill="none" xmlns="http://www.w3.org/2000/svg">
<rect width="23" height="18" fill="black" fill-opacity="0" transform="translate(1)"/>
<path d="M17 5.31787C21.1149 5.92705 24 7.34635 24 9.00004C24 11.2092 18.8513 13 12.5 13C6.14873 13 1 11.2092 1 9.00004C1 7.41418 3.65327 6.04387 7.5 5.39688" stroke="#0F2355"/>
<path d="M24 9L23 15C23 17.2091 18.8513 18 12.5 18C6.14873 18 2 17.2091 2 15L1 9" stroke="#0F2355"/>
<path fill-rule="evenodd" clip-rule="evenodd" d="M10.3092 1.88464C10.4283 2.18824 10.5 2.54476 10.5 3C10.5 3.54079 10.4325 3.94553 10.3136 4.27243C10.1928 4.60476 10.0294 4.82619 9.89043 4.99985C9.86878 5.02692 9.84864 5.05186 9.82984 5.07514C9.72362 5.20669 9.6602 5.28524 9.60701 5.39605C9.55191 5.51085 9.5 5.68401 9.5 6C9.5 6.42382 9.65568 6.68032 9.89957 7.08215C9.90879 7.09734 9.91813 7.11273 9.9276 7.12835C10.1939 7.56768 10.5 8.11305 10.5 9H9.5C9.5 8.38695 9.30614 8.03232 9.0724 7.64665C9.05679 7.62089 9.04078 7.59472 9.0245 7.56811C8.7905 7.1856 8.5 6.71072 8.5 6C8.5 5.56599 8.57309 5.23915 8.70549 4.96332C8.81351 4.73827 8.95769 4.5616 9.06323 4.43228C9.07972 4.41208 9.09525 4.39304 9.10957 4.37515C9.22064 4.23631 9.3072 4.11399 9.37385 3.93069C9.44248 3.74197 9.5 3.45921 9.5 3C9.5 2.65524 9.44671 2.42426 9.37826 2.24973C9.30774 2.06989 9.21331 1.92749 9.08839 1.74637C9.08246 1.73776 9.07643 1.72904 9.07033 1.7202C8.95277 1.55005 8.80577 1.33727 8.69424 1.06774C8.57326 0.775367 8.5 0.434737 8.5 0H9.5C9.5 0.315263 9.55174 0.524633 9.61826 0.685387C9.68843 0.85498 9.78186 0.990503 9.91161 1.17863C10.0367 1.36001 10.1923 1.58636 10.3092 1.88464Z" fill="#0F2355"/>
<path fill-rule="evenodd" clip-rule="evenodd" d="M16.3092 1.88464C16.4283 2.18824 16.5 2.54476 16.5 3C16.5 3.54079 16.4325 3.94553 16.3136 4.27243C16.1928 4.60476 16.0294 4.82619 15.8904 4.99985C15.8688 5.02692 15.8486 5.05186 15.8298 5.07514C15.7236 5.20669 15.6602 5.28524 15.607 5.39605C15.5519 5.51085 15.5 5.68401 15.5 6C15.5 6.42382 15.6557 6.68032 15.8996 7.08215C15.9088 7.09734 15.9181 7.11273 15.9276 7.12835C16.1939 7.56768 16.5 8.11305 16.5 9H15.5C15.5 8.38695 15.3061 8.03232 15.0724 7.64665C15.0568 7.62089 15.0408 7.59472 15.0245 7.56811C14.7905 7.1856 14.5 6.71072 14.5 6C14.5 5.56599 14.5731 5.23915 14.7055 4.96332C14.8135 4.73827 14.9577 4.5616 15.0632 4.43228C15.0797 4.41208 15.0953 4.39304 15.1096 4.37515C15.2206 4.23631 15.3072 4.11399 15.3739 3.93069C15.4425 3.74197 15.5 3.45921 15.5 3C15.5 2.65524 15.4467 2.42426 15.3783 2.24973C15.3077 2.06989 15.2133 1.92749 15.0884 1.74637C15.0825 1.73776 15.0764 1.72904 15.0703 1.7202C14.9528 1.55005 14.8058 1.33727 14.6942 1.06774C14.5733 0.775367 14.5 0.434737 14.5 0H15.5C15.5 0.315263 15.5517 0.524633 15.6183 0.685387C15.6884 0.85498 15.7819 0.990503 15.9116 1.17863C16.0367 1.36001 16.1923 1.58636 16.3092 1.88464Z" fill="#0F2355"/>
<path fill-rule="evenodd" clip-rule="evenodd" d="M13.3092 1.88464C13.4283 2.18824 13.5 2.54476 13.5 3C13.5 3.54079 13.4325 3.94553 13.3136 4.27243C13.1928 4.60476 13.0294 4.82619 12.8904 4.99985C12.8688 5.02692 12.8486 5.05186 12.8298 5.07514C12.7236 5.20669 12.6602 5.28524 12.607 5.39605C12.5519 5.51085 12.5 5.68401 12.5 6C12.5 6.42382 12.6557 6.68032 12.8996 7.08215C12.9088 7.09734 12.9181 7.11273 12.9276 7.12835C13.1939 7.56768 13.5 8.11305 13.5 9H12.5C12.5 8.38695 12.3061 8.03232 12.0724 7.64665C12.0568 7.62089 12.0408 7.59472 12.0245 7.56811C11.7905 7.1856 11.5 6.71072 11.5 6C11.5 5.56599 11.5731 5.23915 11.7055 4.96332C11.8135 4.73827 11.9577 4.5616 12.0632 4.43228C12.0797 4.41208 12.0953 4.39304 12.1096 4.37515C12.2206 4.23631 12.3072 4.11399 12.3739 3.93069C12.4425 3.74197 12.5 3.45921 12.5 3C12.5 2.65524 12.4467 2.42426 12.3783 2.24973C12.3077 2.06989 12.2133 1.92749 12.0884 1.74637C12.0825 1.73776 12.0764 1.72904 12.0703 1.7202C11.9528 1.55005 11.8058 1.33727 11.6942 1.06774C11.5733 0.775367 11.5 0.434737 11.5 0H12.5C12.5 0.315263 12.5517 0.524633 12.6183 0.685387C12.6884 0.85498 12.7819 0.990503 12.9116 1.17863C13.0367 1.36001 13.1923 1.58636 13.3092 1.88464Z" fill="#0F2355"/>
</svg>
