<svg width="28" height="11" viewBox="0 0 28 11" fill="none" xmlns="http://www.w3.org/2000/svg">
<path fill-rule="evenodd" clip-rule="evenodd" d="M8.52462 1.01989V9.33989C8.52462 9.66459 8.44487 10.0373 8.16212 10.3253C7.87704 10.6157 7.50381 10.6999 7.17662 10.6999H6.03663C5.759 10.6999 5.44491 10.6402 5.17783 10.4347L5.16491 10.4248L5.15247 10.4143C4.94649 10.24 4.79521 10.0063 4.67853 9.77294L4.67648 9.76884L3.28062 6.93083V10.6999H0.140625V2.37989C0.140625 2.05199 0.223074 1.67749 0.51065 1.38991C0.798226 1.10234 1.17272 1.01989 1.50063 1.01989H2.61662C2.90332 1.01989 3.22185 1.08795 3.48801 1.30686C3.70611 1.47909 3.86015 1.7177 3.97472 1.94684L3.97719 1.95177L5.39663 4.84747V1.01989H8.52462ZM5.44863 6.54389L3.34862 2.25989C3.25262 2.06789 3.15262 1.93189 3.04862 1.85189C2.94462 1.76389 2.80062 1.71989 2.61662 1.71989H1.50063C1.06062 1.71989 0.840625 1.93989 0.840625 2.37989V9.99989H2.58062V5.07989C2.58062 4.86522 2.57502 4.65855 2.56382 4.45989C2.55061 4.22544 2.52959 4.00213 2.50077 3.78997C2.49941 3.77992 2.49803 3.76989 2.49662 3.75989H2.62862C2.69262 4.03189 2.86063 4.45989 3.13262 5.04389L5.30463 9.45989C5.40063 9.65189 5.50063 9.79189 5.60463 9.87989C5.70863 9.95989 5.85263 9.99989 6.03663 9.99989H7.17662C7.60862 9.99989 7.82463 9.77989 7.82463 9.33989V1.71989H6.09663V6.48389C6.09663 6.66053 6.10473 6.8912 6.12093 7.17589C6.1319 7.36858 6.14659 7.58601 6.16498 7.8282C6.16618 7.84399 6.16739 7.85989 6.16863 7.87589H6.04863C5.84863 7.38789 5.64862 6.94389 5.44863 6.54389ZM15.6664 7.87189L15.8332 10.5411L15.1668 10.612C14.3742 10.6963 13.061 10.7359 11.2528 10.7359C10.5725 10.7359 9.9503 10.5506 9.46381 10.1116L9.4569 10.1053C8.96799 9.6522 8.73938 9.05158 8.72887 8.37882L8.7287 8.36789L8.72878 3.34095C8.73926 2.67004 8.96717 2.07024 9.46034 1.62334C9.94591 1.17511 10.5693 0.983887 11.2528 0.983887C12.991 0.983887 14.2718 1.02048 15.0724 1.09822L15.0593 1.01989H18.3677L18.87 4.61091L19.2875 2.17396C19.3331 1.86996 19.4668 1.58551 19.7065 1.36293L19.7153 1.35477L19.7244 1.34691C19.9857 1.12042 20.302 1.01989 20.6268 1.01989H22.2108C22.5327 1.01989 22.845 1.12388 23.0982 1.35471C23.3464 1.57357 23.4909 1.85954 23.5382 2.17393L23.9593 4.6381L24.4708 1.01989H27.7664L26.3188 9.6261L26.3158 9.64009C26.2508 9.94901 26.0883 10.2159 25.8401 10.4145L25.8287 10.4237L25.8168 10.4324C25.5615 10.6196 25.2677 10.6999 24.9708 10.6999H23.2188C22.9077 10.6999 22.6055 10.6072 22.3496 10.4025C22.0939 10.198 21.9317 9.91906 21.8799 9.59629C21.8798 9.59521 21.8796 9.59414 21.8794 9.59306L21.4163 6.80813L20.9583 9.59306C20.9581 9.59391 20.958 9.59476 20.9579 9.59561C20.9043 9.93045 20.7293 10.2098 20.4675 10.4093C20.2134 10.6093 19.9145 10.6999 19.6068 10.6999H17.8548C17.5578 10.6999 17.2746 10.6155 17.0263 10.4447L17.0054 10.4303L16.9856 10.4145C16.7374 10.2159 16.5749 9.94901 16.5099 9.64009L16.5069 9.6261L15.537 3.85989H11.9648V4.33189H15.2648V7.05189H11.9648V7.87189H15.6664ZM11.2648 7.94789C11.2648 8.17189 11.3088 8.33189 11.3968 8.42789C11.4848 8.52389 11.6288 8.57189 11.8288 8.57189H15.0088L15.0928 9.91589C14.3408 9.99589 13.0608 10.0359 11.2528 10.0359C10.7008 10.0359 10.2608 9.88789 9.93278 9.59189C9.60478 9.28789 9.43678 8.87989 9.42878 8.36789V3.35189C9.43678 2.83989 9.60478 2.43589 9.93278 2.13989C10.2608 1.83589 10.7008 1.68389 11.2528 1.68389C13.0608 1.68389 14.3408 1.72389 15.0928 1.80389L15.0088 3.15989H11.8288C11.6288 3.15989 11.4848 3.20789 11.3968 3.30389C11.3088 3.39989 11.2648 3.55589 11.2648 3.77189V5.03189H14.5648V6.35189H11.2648V7.94789ZM20.0388 9.85589C20.1668 9.75989 20.2428 9.63589 20.2668 9.48389L21.1548 4.08389C21.1788 3.94789 21.2068 3.74389 21.2388 3.47189C21.2724 3.24385 21.2919 3.10297 21.2973 3.04924C21.2983 3.03888 21.2988 3.03177 21.2988 3.02789H21.5268C21.5418 3.18848 21.5602 3.34994 21.5821 3.51227C21.5826 3.51571 21.583 3.51914 21.5835 3.52257C21.6082 3.70458 21.6374 3.88769 21.6708 4.07189L22.5708 9.48389C22.5948 9.63589 22.6668 9.75989 22.7868 9.85589C22.9068 9.95189 23.0508 9.99989 23.2188 9.99989H24.9708C25.1388 9.99989 25.2828 9.95589 25.4028 9.86789C25.5228 9.77189 25.5988 9.64789 25.6308 9.49589L26.9388 1.71989H25.0788L24.2628 7.49189C24.2234 7.81502 24.1879 8.20026 24.1563 8.64761C24.1558 8.65436 24.1553 8.66112 24.1548 8.66789H23.9028C23.9024 8.66212 23.9019 8.65619 23.9014 8.6501C23.8836 8.44489 23.8281 8.05482 23.7348 7.47989L22.8468 2.28389C22.8228 2.11589 22.7508 1.97989 22.6308 1.87589C22.5188 1.77189 22.3788 1.71989 22.2108 1.71989H20.6268C20.4508 1.71989 20.3028 1.77189 20.1828 1.87589C20.0708 1.97989 20.0028 2.11589 19.9788 2.28389L19.0908 7.46789C18.9967 8.03277 18.9372 8.42838 18.9123 8.65472C18.9118 8.65917 18.9113 8.66356 18.9108 8.66789H18.6708C18.6704 8.65925 18.6699 8.65063 18.6694 8.64202C18.6454 8.2122 18.6099 7.82082 18.5628 7.46789L17.7588 1.71989H15.8868L17.1948 9.49589C17.2268 9.64789 17.3028 9.77189 17.4228 9.86789C17.5508 9.95589 17.6948 9.99989 17.8548 9.99989H19.6068C19.7748 9.99989 19.9188 9.95189 20.0388 9.85589Z" fill="#0F2355"/>
</svg>
