<svg width="28" height="29" viewBox="0 0 28 29" fill="none" xmlns="http://www.w3.org/2000/svg">
<rect width="28" height="28.001" fill="black" fill-opacity="0"/>
<path d="M27.5 27H25.5C25.5199 26.8467 25.6667 26.7578 25.6667 26.601C25.6667 25.2838 25.1086 24.3203 24 23.8011V8.46665C24 8.18665 23.8134 8 23.5334 8H16V0.5C16 0.219999 15.78 0 15.5 0H2.5333C2.25319 -5.46876e-05 2 0.219999 2 0.5V27L0.466648 27.0009C0.186648 27.0009 0 27.221 0 27.501C0 27.781 0.186648 28.001 0.466648 28.001H3.26665H4.66665H15.8666H25.06H27.5334C27.8134 28.001 28 27.7805 28 27.5005C28 27.2205 27.78 27 27.5 27ZM23 23.5155C22.8477 23.4942 22.5587 23.3343 22.4 23.3343C22.0477 23.3343 21.7021 23.3943 21.3756 23.5065C21.2943 23.3981 21.1632 23.3343 21 23.3343C20.72 23.3343 20.5334 23.521 20.5334 23.801V23.944C20.3565 24.0714 20.192 24.2168 20.0428 24.3784C20.0192 24.4033 19.996 24.4286 19.9734 24.4543C19.5867 23.9709 19.0886 23.6212 18.5254 23.451C18.4445 23.3768 18.333 23.3343 18.2 23.3343C18.148 23.3343 18.0992 23.3408 18.0542 23.3531C17.9488 23.3408 17.8418 23.3343 17.7334 23.3343C17.4409 23.3343 17.1116 23.3722 16.8447 23.4806C16.8117 23.4917 16.7789 23.5032 16.7464 23.5155C16.4239 23.2533 16.0467 23.0646 15.6493 22.9608C15.6451 22.9596 15.6407 22.9588 15.6366 22.9576C15.6019 22.9487 15.5671 22.9403 15.5322 22.9327C15.5039 22.9264 15.4752 22.921 15.4466 22.9156C15.4342 22.9133 15.4218 22.9109 15.4093 22.9088C15.3793 22.9036 15.3491 22.899 15.3188 22.8948C15.3052 22.8928 15.2917 22.8911 15.278 22.8894C15.2502 22.886 15.2223 22.8828 15.1942 22.8802C15.1736 22.8783 15.1531 22.8769 15.1325 22.8754C15.1105 22.8739 15.0886 22.8721 15.0665 22.871C15.0221 22.8689 14.9778 22.8676 14.9334 22.8676C14.899 22.8676 14.8649 22.8683 14.831 22.8695C14.8088 22.8703 14.7867 22.8717 14.7645 22.8729C14.7557 22.8735 14.7467 22.8739 14.7378 22.8745C14.3127 22.9027 14.3617 22.7875 14 23V9H16L23.1334 9.1482L23 23.5155ZM3 1H15V8H13.5C13.22 8 13 8.22 13 8.5V22.9608C12.7615 22.7223 12.0866 22.0075 11.7873 21.8496C11.7609 21.8355 11.7342 21.8218 11.7074 21.8085C11.6968 21.8033 11.6864 21.7979 11.6758 21.7928C11.3427 21.6313 10.9803 21.5253 10.6016 21.4856C10.5963 21.4851 10.5909 21.4846 10.5856 21.4841C10.5416 21.4797 10.4974 21.4763 10.453 21.4737C10.4413 21.473 10.4295 21.4723 10.4177 21.4717C10.3675 21.4693 10.3172 21.4677 10.2666 21.4677C9.57212 21.4677 8.92866 21.6962 8.4 22.0801V21.9344C8.4 21.6544 8.21335 21.4678 7.93335 21.4678C7.65335 21.4678 7.4667 21.6544 7.4667 21.9344V22.8678C7.4667 22.9378 7.47835 23.0019 7.50023 23.0588C7.27109 23.4364 7.1132 23.8621 7.0467 24.3145C6.50945 24.3759 6.0182 24.5692 5.60005 24.8583V24.7345C5.60005 24.4545 5.41341 24.2678 5.13341 24.2678C4.85341 24.2678 4.66676 24.4545 4.66676 24.7345V25.6679C4.66676 25.7223 4.67403 25.7731 4.68748 25.8198C4.4561 26.1941 4.06486 26.5497 4 27H3V1ZM7.2543 25.2107C7.26354 25.2099 7.27289 25.2094 7.28219 25.2086C7.3068 25.2067 7.33141 25.2049 7.35623 25.2037C7.39282 25.2021 7.42963 25.201 7.4667 25.201C7.7467 25.201 7.93335 25.0143 7.93335 24.7343C7.93335 23.4277 8.96 22.401 10.2667 22.401C11.4334 22.401 12.4134 23.241 12.5534 24.4076C12.5849 24.5338 12.6598 24.6379 12.7623 24.707C12.7688 24.7115 12.7754 24.7158 12.7821 24.72C12.7893 24.7244 12.7965 24.7289 12.804 24.733C12.8212 24.7425 12.8391 24.7512 12.8579 24.7587L12.8599 24.7595C12.8813 24.7681 12.9036 24.7752 12.9266 24.781C12.9544 24.7902 12.9861 24.7938 13.0195 24.7928C13.1729 24.795 13.3155 24.7111 13.3934 24.5945L13.4401 24.5477C13.8135 24.0811 14.3268 23.8011 14.9335 23.8011C15.2486 23.8011 15.5635 23.8894 15.8462 24.0544C15.2895 24.5778 14.9739 25.2602 14.9372 25.9902C14.9347 26.038 14.9335 26.0861 14.9335 26.1344C14.9335 26.459 15.0257 26.7022 15.1325 27H5C5.21842 25.9952 6.23022 25.3037 7.2543 25.2107ZM16 27C15.8217 26.6985 15.9134 26.4096 15.9134 26.0877C15.9134 25.5717 16.1168 25.1068 16.4665 24.7669C16.5333 24.705 16.6045 24.6478 16.6798 24.596C16.7527 24.5965 16.826 24.5813 16.8934 24.5477C17.92 23.9877 19.1334 24.501 19.5067 25.5277C19.5534 25.6677 19.6934 25.8077 19.9267 25.8077C19.971 25.8077 20.02 25.7936 20.0692 25.7685C20.1863 25.7493 20.2789 25.6634 20.3467 25.5277C20.5276 25.1434 20.8076 24.8366 21.1484 24.6215C21.2219 24.601 21.2851 24.5647 21.3353 24.5154C21.6559 24.3543 22.0192 24.2677 22.4001 24.2677C23.7067 24.2677 24.7334 25.2943 24.7334 26.601C24.7334 26.741 24.5466 26.86 24.5 27H16Z" fill="#0F2355"/>
<path d="M5.5 5C5.78 5 6 4.78 6 4.5L5.9997 3.46665C5.9997 3.18665 5.77985 3 5.49985 3C5.21985 3 5 3.18665 5 3.46665L5.0003 4.5C5.00024 4.77995 5.22 5 5.5 5Z" fill="#0F2355"/>
<path d="M7.5 5C7.78 5 8 4.78 8 4.5L7.9997 3.46665C7.9997 3.18665 7.77985 3 7.49985 3C7.21985 3 7 3.18665 7 3.46665L7.0003 4.5C7.00024 4.77995 7.22 5 7.5 5Z" fill="#0F2355"/>
<path d="M9.5 5C9.78 5 10 4.78 10 4.5L9.9997 3.46665C9.9997 3.18665 9.77985 3 9.49985 3C9.21985 3 9 3.18665 9 3.46665L9.0003 4.5C9.00024 4.77995 9.22 5 9.5 5Z" fill="#0F2355"/>
<path d="M11.5 5C11.78 5 12 4.78 12 4.5L11.9997 3.46665C11.9997 3.18665 11.7799 3 11.4999 3C11.2199 3 11 3.18665 11 3.46665L11.0003 4.5C11.0002 4.77995 11.22 5 11.5 5Z" fill="#0F2355"/>
<path d="M5.5 8C5.78 8 6 7.78 6 7.5L5.9997 6.46665C5.9997 6.18665 5.77985 6 5.49985 6C5.21985 6 5 6.18665 5 6.46665L5.0003 7.5C5.00024 7.77995 5.22 8 5.5 8Z" fill="#0F2355"/>
<path d="M7.5 8C7.78 8 8 7.78 8 7.5L7.9997 6.46665C7.9997 6.18665 7.77985 6 7.49985 6C7.21985 6 7 6.18665 7 6.46665L7.0003 7.5C7.00024 7.77995 7.22 8 7.5 8Z" fill="#0F2355"/>
<path d="M9.5 8C9.78 8 10 7.78 10 7.5L9.9997 6.46665C9.9997 6.18665 9.77985 6 9.49985 6C9.21985 6 9 6.18665 9 6.46665L9.0003 7.5C9.00024 7.77995 9.22 8 9.5 8Z" fill="#0F2355"/>
<path d="M11.5 8C11.78 8 12 7.78 12 7.5L11.9997 6.46665C11.9997 6.18665 11.7799 6 11.4999 6C11.2199 6 11 6.18665 11 6.46665L11.0003 7.5C11.0002 7.77995 11.22 8 11.5 8Z" fill="#0F2355"/>
<path d="M5.5 11C5.78 11 6 10.78 6 10.5L5.9997 9.46665C5.9997 9.18665 5.77985 9 5.49985 9C5.21985 9 5 9.18665 5 9.46665L5.0003 10.5C5.00024 10.7799 5.22 11 5.5 11Z" fill="#0F2355"/>
<path d="M7.5 11C7.78 11 8 10.78 8 10.5L7.9997 9.46665C7.9997 9.18665 7.77985 9 7.49985 9C7.21985 9 7 9.18665 7 9.46665L7.0003 10.5C7.00024 10.7799 7.22 11 7.5 11Z" fill="#0F2355"/>
<path d="M9.5 11C9.78 11 10 10.78 10 10.5L9.9997 9.46665C9.9997 9.18665 9.77985 9 9.49985 9C9.21985 9 9 9.18665 9 9.46665L9.0003 10.5C9.00024 10.7799 9.22 11 9.5 11Z" fill="#0F2355"/>
<path d="M11.5 11C11.78 11 12 10.78 12 10.5L11.9997 9.46665C11.9997 9.18665 11.7799 9 11.4999 9C11.2199 9 11 9.18665 11 9.46665L11.0003 10.5C11.0002 10.7799 11.22 11 11.5 11Z" fill="#0F2355"/>
<path d="M5.5 14C5.78 14 6 13.78 6 13.5L5.9997 12.4666C5.9997 12.1866 5.77985 12 5.49985 12C5.21985 12 5 12.1866 5 12.4666L5.0003 13.5C5.00024 13.7799 5.22 14 5.5 14Z" fill="#0F2355"/>
<path d="M7.5 14C7.78 14 8 13.78 8 13.5L7.9997 12.4666C7.9997 12.1866 7.77985 12 7.49985 12C7.21985 12 7 12.1866 7 12.4666L7.0003 13.5C7.00024 13.7799 7.22 14 7.5 14Z" fill="#0F2355"/>
<path d="M9.5 14C9.78 14 10 13.78 10 13.5L9.9997 12.4666C9.9997 12.1866 9.77985 12 9.49985 12C9.21985 12 9 12.1866 9 12.4666L9.0003 13.5C9.00024 13.7799 9.22 14 9.5 14Z" fill="#0F2355"/>
<path d="M11.5 14C11.78 14 12 13.78 12 13.5L11.9997 12.4666C11.9997 12.1866 11.7799 12 11.4999 12C11.2199 12 11 12.1866 11 12.4666L11.0003 13.5C11.0002 13.7799 11.22 14 11.5 14Z" fill="#0F2355"/>
<path d="M5.5 17C5.78 17 6 16.78 6 16.5L5.9997 15.4666C5.9997 15.1866 5.77985 15 5.49985 15C5.21985 15 5 15.1866 5 15.4666L5.0003 16.5C5.00024 16.7799 5.22 17 5.5 17Z" fill="#0F2355"/>
<path d="M7.5 17C7.78 17 8 16.78 8 16.5L7.9997 15.4666C7.9997 15.1866 7.77985 15 7.49985 15C7.21985 15 7 15.1866 7 15.4666L7.0003 16.5C7.00024 16.7799 7.22 17 7.5 17Z" fill="#0F2355"/>
<path d="M9.5 17C9.78 17 10 16.78 10 16.5L9.9997 15.4666C9.9997 15.1866 9.77985 15 9.49985 15C9.21985 15 9 15.1866 9 15.4666L9.0003 16.5C9.00024 16.7799 9.22 17 9.5 17Z" fill="#0F2355"/>
<path d="M11.5 17C11.78 17 12 16.78 12 16.5L11.9997 15.4666C11.9997 15.1866 11.7799 15 11.4999 15C11.2199 15 11 15.1866 11 15.4666L11.0003 16.5C11.0002 16.7799 11.22 17 11.5 17Z" fill="#0F2355"/>
<path d="M5.5 20C5.78 20 6 19.78 6 19.5L5.9997 18.4666C5.9997 18.1866 5.77985 18 5.49985 18C5.21985 18 5 18.1866 5 18.4666L5.0003 19.5C5.00024 19.7799 5.22 20 5.5 20Z" fill="#0F2355"/>
<path d="M7.5 20C7.78 20 8 19.78 8 19.5L7.9997 18.4666C7.9997 18.1866 7.77985 18 7.49985 18C7.21985 18 7 18.1866 7 18.4666L7.0003 19.5C7.00024 19.7799 7.22 20 7.5 20Z" fill="#0F2355"/>
<path d="M9.5 20C9.78 20 10 19.78 10 19.5L9.9997 18.4666C9.9997 18.1866 9.77985 18 9.49985 18C9.21985 18 9 18.1866 9 18.4666L9.0003 19.5C9.00024 19.7799 9.22 20 9.5 20Z" fill="#0F2355"/>
<path d="M11.5 20C11.78 20 12 19.78 12 19.5L11.9997 18.4666C11.9997 18.1866 11.7799 18 11.4999 18C11.2199 18 11 18.1866 11 18.4666L11.0003 19.5C11.0002 19.7799 11.22 20 11.5 20Z" fill="#0F2355"/>
<path d="M15.5 13C15.78 13 16 12.78 16 12.5L15.9997 11.4666C15.9997 11.1866 15.7799 11 15.4999 11C15.2199 11 15 11.1866 15 11.4666L15.0003 12.5C15.0002 12.7799 15.22 13 15.5 13Z" fill="#0F2355"/>
<path d="M17.5 13C17.78 13 18 12.78 18 12.5L17.9997 11.4666C17.9997 11.1866 17.7799 11 17.4999 11C17.2199 11 17 11.1866 17 11.4666L17.0003 12.5C17.0002 12.7799 17.22 13 17.5 13Z" fill="#0F2355"/>
<path d="M19.5 13C19.78 13 20 12.78 20 12.5L19.9997 11.4666C19.9997 11.1866 19.7799 11 19.4999 11C19.2199 11 19 11.1866 19 11.4666L19.0003 12.5C19.0002 12.7799 19.22 13 19.5 13Z" fill="#0F2355"/>
<path d="M21.5 13C21.78 13 22 12.78 22 12.5L21.9997 11.4666C21.9997 11.1866 21.7799 11 21.4999 11C21.2199 11 21 11.1866 21 11.4666L21.0003 12.5C21.0002 12.7799 21.22 13 21.5 13Z" fill="#0F2355"/>
<path d="M15.5 16C15.78 16 16 15.78 16 15.5L15.9997 14.4666C15.9997 14.1866 15.7799 14 15.4999 14C15.2199 14 15 14.1866 15 14.4666L15.0003 15.5C15.0002 15.7799 15.22 16 15.5 16Z" fill="#0F2355"/>
<path d="M17.5 16C17.78 16 18 15.78 18 15.5L17.9997 14.4666C17.9997 14.1866 17.7799 14 17.4999 14C17.2199 14 17 14.1866 17 14.4666L17.0003 15.5C17.0002 15.7799 17.22 16 17.5 16Z" fill="#0F2355"/>
<path d="M19.5 16C19.78 16 20 15.78 20 15.5L19.9997 14.4666C19.9997 14.1866 19.7799 14 19.4999 14C19.2199 14 19 14.1866 19 14.4666L19.0003 15.5C19.0002 15.7799 19.22 16 19.5 16Z" fill="#0F2355"/>
<path d="M21.5 16C21.78 16 22 15.78 22 15.5L21.9997 14.4666C21.9997 14.1866 21.7799 14 21.4999 14C21.2199 14 21 14.1866 21 14.4666L21.0003 15.5C21.0002 15.7799 21.22 16 21.5 16Z" fill="#0F2355"/>
<path d="M15.5 19C15.78 19 16 18.78 16 18.5L15.9997 17.4666C15.9997 17.1866 15.7799 17 15.4999 17C15.2199 17 15 17.1866 15 17.4666L15.0003 18.5C15.0002 18.7799 15.22 19 15.5 19Z" fill="#0F2355"/>
<path d="M17.5 19C17.78 19 18 18.78 18 18.5L17.9997 17.4666C17.9997 17.1866 17.7799 17 17.4999 17C17.2199 17 17 17.1866 17 17.4666L17.0003 18.5C17.0002 18.7799 17.22 19 17.5 19Z" fill="#0F2355"/>
<path d="M19.5 19C19.78 19 20 18.78 20 18.5L19.9997 17.4666C19.9997 17.1866 19.7799 17 19.4999 17C19.2199 17 19 17.1866 19 17.4666L19.0003 18.5C19.0002 18.7799 19.22 19 19.5 19Z" fill="#0F2355"/>
<path d="M21.5 19C21.78 19 22 18.78 22 18.5L21.9997 17.4666C21.9997 17.1866 21.7799 17 21.4999 17C21.2199 17 21 17.1866 21 17.4666L21.0003 18.5C21.0002 18.7799 21.22 19 21.5 19Z" fill="#0F2355"/>
<path d="M15.5 22C15.78 22 16 21.78 16 21.5L15.9997 20.4666C15.9997 20.1866 15.7799 20 15.4999 20C15.2199 20 15 20.1866 15 20.4666L15.0003 21.5C15.0002 21.7799 15.22 22 15.5 22Z" fill="#0F2355"/>
<path d="M17.5 22C17.78 22 18 21.78 18 21.5L17.9997 20.4666C17.9997 20.1866 17.7799 20 17.4999 20C17.2199 20 17 20.1866 17 20.4666L17.0003 21.5C17.0002 21.7799 17.22 22 17.5 22Z" fill="#0F2355"/>
<path d="M19.5 22C19.78 22 20 21.78 20 21.5L19.9997 20.4666C19.9997 20.1866 19.7799 20 19.4999 20C19.2199 20 19 20.1866 19 20.4666L19.0003 21.5C19.0002 21.7799 19.22 22 19.5 22Z" fill="#0F2355"/>
<path d="M21.5 22C21.78 22 22 21.78 22 21.5L21.9997 20.4666C21.9997 20.1866 21.7799 20 21.4999 20C21.2199 20 21 20.1866 21 20.4666L21.0003 21.5C21.0002 21.7799 21.22 22 21.5 22Z" fill="#0F2355"/>
</svg>
