<svg width="24" height="21" viewBox="0 0 24 21" fill="none" xmlns="http://www.w3.org/2000/svg">
<rect width="22" height="19.0001" fill="black" fill-opacity="0" transform="translate(1 1)"/>
<path d="M1 13.6768C3.17472 15.5694 4.96641 16.3012 7.86022 16.4786C11.2718 16.6878 13.8282 13.4676 17.2398 13.6768C20.1336 13.8542 23 16.4786 23 16.4786" stroke="#0F2355"/>
<path d="M5.94922 16.2002C5.94922 16.2002 5.94969 6.06672 5.94922 4.80004C5.94781 1 9.24922 1 9.24922 1" stroke="#0F2355"/>
<path d="M13.65 14.9335C13.65 14.9335 13.6505 6.06672 13.65 4.80004C13.6486 1 16.95 1 16.95 1M6.5 6.70006H13.1M6.5 10.5001H13.1" stroke="#0F2355"/>
<path d="M1 17.1885C3.17472 19.0811 4.96641 19.8129 7.86022 19.9903C11.2718 20.1995 13.8282 16.9793 17.2398 17.1885C20.1336 17.3659 23 19.9903 23 19.9903" stroke="#0F2355"/>
</svg>
