<svg width="24" height="24" viewBox="0 0 24 24" fill="none" xmlns="http://www.w3.org/2000/svg">
<rect width="24" height="24" fill="black" fill-opacity="0"/>
<path d="M23.6 23.2H21.6V2.4H22.4C22.64 2.4 22.8 2.24002 22.8 2.00002V0.399984C22.8 0.159984 22.64 0 22.4 0H1.59998C1.35998 0 1.2 0.159984 1.2 0.399984V1.99997C1.2 2.23997 1.35998 2.39995 1.59998 2.39995H2.4V23.1999H0.399984C0.159984 23.1999 0 23.3599 0 23.5999C0 23.8399 0.159984 24 0.399984 24H2.79998H9.6H14.4H21.2H23.6C23.84 24 24 23.84 24 23.6C24 23.36 23.84 23.2 23.6 23.2ZM2.00002 0.800016H22V1.60003H21.2H2.79998H2.00002V0.800016ZM9.99998 23.2V16.8H11.6V23.2H9.99998ZM12.4 23.2V16.8H14V23.2H12.4ZM14.8 23.2V16.4C14.8 16.16 14.64 16 14.4 16H9.6C9.36 16 9.20002 16.16 9.20002 16.4V23.2H3.20002V2.4H20.8V23.2H14.8Z" fill="#0F2355"/>
<path d="M10.8 4H7.59995H4.39998C4.15998 4 4 4.15998 4 4.39998V7.6C4 7.84 4.15998 7.99998 4.39998 7.99998H7.6H10.8C11.04 7.99998 11.2 7.84 11.2 7.6V4.40003C11.2 4.16003 11.04 4 10.8 4ZM4.79997 4.80002H7.19997V7.20002H4.79997V4.80002ZM10.4 7.20002H7.99998V4.80002H10.4V7.20002Z" fill="#0F2355"/>
<path d="M7.99998 16H4.39998C4.15998 16 4 16.16 4 16.4V19.6C4 19.84 4.15998 20 4.39998 20H7.99998C8.23998 20 8.39997 19.84 8.39997 19.6V16.4C8.39997 16.16 8.23998 16 7.99998 16ZM7.59995 19.2H4.79997V16.8H7.59995V19.2Z" fill="#0F2355"/>
<path d="M19.5996 16H15.9996C15.7596 16 15.5996 16.16 15.5996 16.4V19.6C15.5996 19.84 15.7596 20 15.9996 20H19.5996C19.8396 20 19.9996 19.84 19.9996 19.6V16.4C19.9996 16.16 19.8396 16 19.5996 16ZM19.1996 19.2H16.3996V16.8H19.1996V19.2Z" fill="#0F2355"/>
<path d="M19.6008 4H16.4007H13.2008C12.9608 4 12.8008 4.15998 12.8008 4.39998V7.6C12.8008 7.84 12.9608 7.99998 13.2008 7.99998H16.4008H19.6008C19.8408 7.99998 20.0008 7.84 20.0008 7.6V4.40003C20.0008 4.16003 19.8408 4 19.6008 4ZM13.6008 4.80002H16.0008V7.20002H13.6008V4.80002ZM19.2008 7.20002H16.8008V4.80002H19.2008V7.20002Z" fill="#0F2355"/>
<path d="M10.8 9.6001H7.59995H4.39998C4.15998 9.6001 4 9.76008 4 10.0001V13.2001C4 13.4401 4.15998 13.6001 4.39998 13.6001H7.6H10.8C11.04 13.6001 11.2 13.4401 11.2 13.2001V10.0001C11.2 9.76008 11.04 9.6001 10.8 9.6001ZM4.79997 10.4001H7.19997V12.8001H4.79997V10.4001ZM10.4 12.8001H7.99998V10.4001H10.4V12.8001Z" fill="#0F2355"/>
<path d="M19.6008 9.6001H16.4007H13.2008C12.9608 9.6001 12.8008 9.76008 12.8008 10.0001V13.2001C12.8008 13.4401 12.9608 13.6001 13.2008 13.6001H16.4008H19.6008C19.8408 13.6001 20.0008 13.4401 20.0008 13.2001V10.0001C20.0008 9.76008 19.8408 9.6001 19.6008 9.6001ZM13.6008 10.4001H16.0008V12.8001H13.6008V10.4001ZM19.2008 12.8001H16.8008V10.4001H19.2008V12.8001Z" fill="#0F2355"/>
</svg>
