<svg width="22" height="24" viewBox="0 0 22 24" fill="none" xmlns="http://www.w3.org/2000/svg">
  <path d="M0.5 2.5H0V3H0.5V2.5ZM3.5 2.5H4V2H3.5V2.5ZM3.5 5.5H3V6H3.5V5.5ZM6.5 5.5H7V5H6.5V5.5ZM6.5 8.5H6V9H6.5V8.5ZM9.5 8.5H10V8H9.5V8.5ZM9.5 11.5H9V12H9.5V11.5ZM12.5 11.5H13V11H12.5V11.5ZM12.5 14.5H12V15H12.5V14.5ZM15.5 14.5H16V14H15.5V14.5ZM15.5 17.5H15V18H15.5V17.5ZM18.5 17.5H19V17H18.5V17.5ZM18.5 20.5H18V21H18.5V20.5ZM21.5 20.5H22V20H21.5V20.5ZM14.8536 4.14645C14.6583 3.95118 14.3417 3.95118 14.1464 4.14645C13.9512 4.34171 13.9512 4.65829 14.1464 4.85355L14.8536 4.14645ZM19.5 9.5V10C19.7761 10 20 9.77614 20 9.5H19.5ZM20 5.5C20 5.22386 19.7761 5 19.5 5C19.2239 5 19 5.22386 19 5.5H20ZM15.5 9C15.2239 9 15 9.22386 15 9.5C15 9.77614 15.2239 10 15.5 10V9ZM0 0V2.5H1V0H0ZM0.5 3H3.5V2H0.5V3ZM3 2.5V5.5H4V2.5H3ZM3.5 6H6.5V5H3.5V6ZM6 5.5V8.5H7V5.5H6ZM6.5 9H9.5V8H6.5V9ZM9 8.5V11.5H10V8.5H9ZM9.5 12H12.5V11H9.5V12ZM12 11.5V14.5H13V11.5H12ZM12.5 15H15.5V14H12.5V15ZM15 14.5V17.5H16V14.5H15ZM15.5 18H18.5V17H15.5V18ZM18 17.5V20.5H19V17.5H18ZM18.5 21H21.5V20H18.5V21ZM21 20.5V24H22V20.5H21ZM14.1464 4.85355L19.1464 9.85355L19.8536 9.14645L14.8536 4.14645L14.1464 4.85355ZM20 9.5V5.5H19V9.5H20ZM19.5 9H15.5V10H19.5V9Z"
    fill="#0F2355" />
</svg>
