<svg width="25" height="26" viewBox="0 0 25 26" fill="none" xmlns="http://www.w3.org/2000/svg">
<rect width="24.9992" height="25.9999" fill="black" fill-opacity="0"/>
<path d="M0 25.9979H0.833307V10.9012H8.33307V25.9979L9.16638 25.9979V10.0625H0V25.9979Z" fill="#0F2355"/>
<path d="M16.667 0H5.83398V9.22576H6.66729V0.838705H15.8337V12.5806H13.3337V25.9999H14.1671V13.4193H20.0002V25.9999H20.8335V12.5806H16.667V0Z" fill="#0F2355"/>
<path d="M7.49917 11.7397H1.66602V12.5785H7.49917V11.7397Z" fill="#0F2355"/>
<path d="M14.9998 1.67725H7.5V2.51595H14.9998V1.67725Z" fill="#0F2355"/>
<path d="M3.33331 14.2559H2.5V15.9333H3.33331V14.2559Z" fill="#0F2355"/>
<path d="M4.99932 14.2559H4.16602V15.9333H4.99932V14.2559Z" fill="#0F2355"/>
<path d="M6.66729 14.2559H5.83398V15.9333H6.66729V14.2559Z" fill="#0F2355"/>
<path d="M3.33331 17.6108H2.5V19.2883H3.33331V17.6108Z" fill="#0F2355"/>
<path d="M4.99932 17.6108H4.16602V19.2883H4.99932V17.6108Z" fill="#0F2355"/>
<path d="M6.66729 17.6108H5.83398V19.2883H6.66729V17.6108Z" fill="#0F2355"/>
<path d="M3.33331 20.9658H2.5V22.6432H3.33331V20.9658Z" fill="#0F2355"/>
<path d="M4.99932 20.9658H4.16602V22.6432H4.99932V20.9658Z" fill="#0F2355"/>
<path d="M6.66729 20.9658H5.83398V22.6432H6.66729V20.9658Z" fill="#0F2355"/>
<path d="M3.29187 24.3203H2.5V25.9457H3.29187V24.3203Z" fill="#0F2355"/>
<path d="M4.95789 24.3203H4.16602V25.9457H4.95789V24.3203Z" fill="#0F2355"/>
<path d="M6.62586 24.3203H5.83398V25.9457H6.62586V24.3203Z" fill="#0F2355"/>
<path d="M15.0405 3.35498H7.5V5.8711H14.999L15.0405 3.35498ZM14.1665 5.03239H8.33331V4.19395H14.1665V5.03239Z" fill="#0F2355"/>
<path d="M9.16729 6.70947H8.33398V8.38688H9.16729V6.70947Z" fill="#0F2355"/>
<path d="M10.8333 6.70947H10V8.38688H10.8333V6.70947Z" fill="#0F2355"/>
<path d="M12.4993 6.70947H11.666V8.38688H12.4993V6.70947Z" fill="#0F2355"/>
<path d="M14.1645 6.70953L13.332 6.70947V8.38688H14.1653L14.1645 6.70953Z" fill="#0F2355"/>
<path d="M10.8333 9.22559H10V10.903H10.8333V9.22559Z" fill="#0F2355"/>
<path d="M12.4993 9.22559H11.666V10.903H12.4993V9.22559Z" fill="#0F2355"/>
<path d="M10.8333 11.7417H10V13.4191H10.8333V11.7417Z" fill="#0F2355"/>
<path d="M12.4993 11.7417H11.666V13.4191H12.4993V11.7417Z" fill="#0F2355"/>
<path d="M10.8333 14.2578H10V15.9352H10.8333V14.2578Z" fill="#0F2355"/>
<path d="M12.4993 14.2578H11.666V15.9352H12.4993V14.2578Z" fill="#0F2355"/>
<path d="M10.8333 16.7739H10V18.4513H10.8333V16.7739Z" fill="#0F2355"/>
<path d="M12.4993 16.7739H11.666V18.4513H12.4993V16.7739Z" fill="#0F2355"/>
<path d="M10.8333 19.29H10V20.9674H10.8333V19.29Z" fill="#0F2355"/>
<path d="M12.4993 19.29H11.666V20.9674H12.4993V19.29Z" fill="#0F2355"/>
<path d="M10.8333 21.8062H10V23.4836H10.8333V21.8062Z" fill="#0F2355"/>
<path d="M12.4993 21.8062H11.666V23.4836H12.4993V21.8062Z" fill="#0F2355"/>
<path d="M10.8333 24.3223H10V25.9997H10.8333V24.3223Z" fill="#0F2355"/>
<path d="M12.4993 24.3223H11.666V25.9997H12.4993V24.3223Z" fill="#0F2355"/>
<path d="M14.1653 9.22559H13.332V10.903H14.1653V9.22559Z" fill="#0F2355"/>
<path d="M19.1665 14.2578H15V15.0965H19.1665V14.2578Z" fill="#0F2355"/>
<path d="M15.8333 15.9355H15V26H15.8333V15.9355Z" fill="#0F2355"/>
<path d="M17.4993 15.9355H16.666V26H17.4993V15.9355Z" fill="#0F2355"/>
<path d="M19.1653 15.9355H18.332V26H19.1653V15.9355Z" fill="#0F2355"/>
<path d="M24.9998 0.838867L22.4998 2.93563V2.51628H21.6665V3.35498L20.8332 4.19369V1.20908H19.9999V5.03239L19.1666 5.8711V3.35498H18.3333V6.70981L17.5 7.5213V11.742H18.3333V8.38722H20.8332V9.22592H24.166L24.1665 26H24.9998V0.838867ZM20.8332 7.54851H18.3333L24.1665 2.51628L24.166 6.72415L20.8332 6.70981V7.54851ZM21.6665 8.38722V7.54851H24.1665L24.166 8.38722H21.6665Z" fill="#0F2355"/>
<path d="M23.3333 12.5806H22.5V14.258H23.3333V12.5806Z" fill="#0F2355"/>
<path d="M23.3333 15.0967H22.5V16.7741H23.3333V15.0967Z" fill="#0F2355"/>
<path d="M23.3333 17.6128H22.5V19.2902H23.3333V17.6128Z" fill="#0F2355"/>
<path d="M23.3333 20.1289H22.5V21.8063H23.3333V20.1289Z" fill="#0F2355"/>
<path d="M23.3333 22.645H22.5V24.3224H23.3333V22.645Z" fill="#0F2355"/>
<path d="M23.3333 10.0645H22.5V11.7419H23.3333V10.0645Z" fill="#0F2355"/>
<path d="M21.6653 10.0645H20.832V11.7419H21.6653V10.0645Z" fill="#0F2355"/>
<path d="M19.9579 10.0645H19.166V11.6899H19.9579V10.0645Z" fill="#0F2355"/>
</svg>
