<svg width="18" height="25" viewBox="0 0 18 25" fill="none" xmlns="http://www.w3.org/2000/svg">
<rect width="16" height="23" fill="black" fill-opacity="0" transform="translate(1 1)"/>
<path d="M1.5 2.17949C1.5 1.90334 1.27614 1.67949 1 1.67949C0.723858 1.67949 0.5 1.90334 0.5 2.17949H1.5ZM3.87037 1C3.87037 0.723858 3.64651 0.5 3.37037 0.5C3.09423 0.5 2.87037 0.723858 2.87037 1H3.87037ZM6.24074 1C6.24074 0.723858 6.01688 0.5 5.74074 0.5C5.4646 0.5 5.24074 0.723858 5.24074 1H6.24074ZM8.61111 2.17949C8.61111 1.90334 8.38725 1.67949 8.11111 1.67949C7.83497 1.67949 7.61111 1.90334 7.61111 2.17949H8.61111ZM0.5 2.17949V5.70655H1.5V2.17949H0.5ZM3.87037 8.07692V1H2.87037V8.07692H3.87037ZM6.24074 8.07692V1H5.24074V8.07692H6.24074ZM8.61111 5.70655V2.17949H7.61111V5.70655H8.61111ZM3.37037 8.57692H4.55556V7.57692H3.37037V8.57692ZM4.55556 8.57692H5.74074V7.57692H4.55556V8.57692ZM2.87037 8.07692V23H3.87037V8.07692H2.87037ZM4.37037 24.5H4.74074V23.5H4.37037V24.5ZM6.24074 23V8.07692H5.24074V23H6.24074ZM4.74074 24.5C5.56917 24.5 6.24074 23.8284 6.24074 23H5.24074C5.24074 23.2761 5.01688 23.5 4.74074 23.5V24.5ZM2.87037 23C2.87037 23.8284 3.54194 24.5 4.37037 24.5V23.5C4.09423 23.5 3.87037 23.2761 3.87037 23H2.87037ZM5.74074 8.57692C7.326 8.57692 8.61111 7.29181 8.61111 5.70655H7.61111C7.61111 6.73953 6.77372 7.57692 5.74074 7.57692V8.57692ZM0.5 5.70655C0.5 7.29181 1.78511 8.57692 3.37037 8.57692V7.57692C2.33739 7.57692 1.5 6.73953 1.5 5.70655H0.5Z" fill="#0F2355"/>
<path d="M17 15.7437V23.0001C17 23.5524 16.5523 24.0001 16 24.0001H15.6296C15.0773 24.0001 14.6296 23.5524 14.6296 23.0001V15.7437M17 15.7437H14.6296M17 15.7437V1.58984C11.1179 2.85037 11.2716 12.0086 11.0741 15.7437H14.6296" stroke="#0F2355"/>
</svg>
