<svg width="17" height="24" viewBox="0 0 17 24" fill="none" xmlns="http://www.w3.org/2000/svg">
<rect width="17" height="23.9998" fill="black" fill-opacity="0"/>
<path d="M15.3811 8.53268L15.1542 8.84604L15.4006 9.14432C16.0882 9.97687 16.5001 11.0359 16.5 12.1905V12.1905C16.5 14.8533 14.3088 17.0238 11.5909 17.0238C11.2055 17.0238 10.8037 17.0989 10.4737 17.1605C10.3612 17.1815 10.257 17.201 10.1647 17.2154C9.75744 17.2789 9.48563 17.2716 9.25294 17.1473L8.66685 16.8341L8.52829 17.484L8.47389 17.7391C8.3169 17.7487 8.12056 17.7576 7.90916 17.7649C7.50902 17.7788 7.10961 17.7858 6.95454 17.7858C4.23662 17.7858 2.04542 15.6152 2.04542 12.9524C2.04542 12.7954 2.05421 12.6386 2.06969 12.4811L2.09133 12.2609L1.94287 12.0968C1.04643 11.1058 0.5 9.8073 0.5 8.38097C0.5 5.78747 2.29727 3.60425 4.74252 2.97443L4.97486 2.91459L5.07354 2.6959C5.65639 1.40435 6.96868 0.5 8.50005 0.5C9.81991 0.5 10.9769 1.17207 11.6455 2.18554L11.7981 2.41688L12.0751 2.41005C12.1036 2.40935 12.1315 2.40737 12.1463 2.40632C12.1481 2.40619 12.1497 2.40608 12.1511 2.40598C12.167 2.40488 12.1707 2.40482 12.1707 2.40481C14.3551 2.40487 16.1137 4.14901 16.1137 6.28575C16.1137 7.12303 15.8417 7.89654 15.3811 8.53268Z" stroke="#0F2355"/>
<path d="M7.25216 0.709705C6.27789 1.0488 5.48974 1.77363 5.07354 2.6959L4.97486 2.91459L4.74252 2.97443C2.29727 3.60425 0.5 5.78747 0.5 8.38097C0.5 9.8073 1.04643 11.1058 1.94287 12.0968L2.09133 12.2609L2.06969 12.4811C2.05421 12.6386 2.04542 12.7954 2.04542 12.9524C2.04542 15.6152 4.23662 17.7858 6.95454 17.7858C7.10962 17.7858 7.50902 17.7788 7.90916 17.7649C8.08289 17.7589 8.24646 17.7518 8.38637 17.7442V17.0382V16.87C7.83736 16.9136 7.24809 16.8304 6.63529 16.545M7.25216 0.709705L6.63529 16.545M7.25216 0.709705C6.28924 1.56575 5.68185 2.80552 5.68185 4.19044C5.68185 4.30498 5.6871 4.41694 5.69613 4.52619C4.09422 5.27583 2.97729 6.88521 2.97729 8.76188C2.97729 10.2017 3.63669 11.4852 4.66552 12.343C4.5441 12.7548 4.49594 13.197 4.53729 13.6544C4.65247 14.9292 5.49737 16.0151 6.63529 16.545M7.25216 0.709705L6.84638 16.0918L6.63529 16.545" stroke="#0F2355"/>
<path d="M8.9969 23.1957L8.96509 16.931C9.04436 16.9072 9.11729 16.8793 9.18492 16.8505C9.2526 16.8217 9.32135 16.7891 9.37989 16.7614C9.39472 16.7544 9.4089 16.7476 9.42224 16.7414C9.43393 16.7359 9.44538 16.7305 9.45661 16.7253V23.1581L8.9969 23.1957Z" stroke="#0F2355"/>
<path d="M9.49172 17.2582L9.49841 17.3965L9.35877 17.3842M9.49172 17.2582L9.35877 17.3842M9.49172 17.2582C9.43925 17.275 9.38625 17.2906 9.33275 17.305C9.25417 17.3262 9.17451 17.3449 9.09388 17.3608L9.35877 17.3842M9.49172 17.2582L9.35877 17.3842M9.58122 17.0285L9.60824 17.1014L9.58123 17.0285L9.58122 17.0285ZM8.59763 23.1191L8.73527 19.8447V23.1191H8.59763Z" stroke="#0F2355"/>
<mask id="path-5-inside-1" fill="white">
<path d="M10.8185 23.9997H6.9548C6.74143 23.9997 6.56836 23.5915 6.56836 23.381C6.56836 23.1704 6.74136 23 6.95473 23H10.8184C11.0317 23 11.2047 23.1704 11.2047 23.381C11.2047 23.5915 11.0318 23.9997 10.8185 23.9997Z"/>
</mask>
<path d="M10.8185 22.9997H6.9548V24.9997H10.8185V22.9997ZM6.9548 22.9997C7.23331 22.9997 7.41055 23.1329 7.47293 23.1889C7.50826 23.2207 7.53 23.2477 7.54091 23.2623C7.55231 23.2776 7.558 23.2878 7.55969 23.2909C7.56156 23.2943 7.56165 23.2949 7.56085 23.2929C7.56008 23.291 7.55963 23.2896 7.55964 23.2896C7.55969 23.2897 7.56003 23.291 7.56057 23.2933C7.5611 23.2956 7.56197 23.2997 7.56296 23.3057C7.56459 23.3156 7.56836 23.3416 7.56836 23.381H5.56836C5.56836 23.6936 5.67527 24.0125 5.80344 24.2477C5.87251 24.3745 5.97869 24.535 6.13588 24.6763C6.29071 24.8155 6.5696 24.9997 6.9548 24.9997V22.9997ZM7.56836 23.381C7.56836 23.7362 7.27997 24 6.95473 24V22C6.20275 22 5.56836 22.6045 5.56836 23.381H7.56836ZM6.95473 24H10.8184V22H6.95473V24ZM10.8184 24C10.4931 24 10.2047 23.7363 10.2047 23.381H12.2047C12.2047 22.6045 11.5704 22 10.8184 22V24ZM10.2047 23.381C10.2047 23.3417 10.2085 23.3157 10.2101 23.3058C10.2111 23.2999 10.212 23.2957 10.2125 23.2934C10.2131 23.2911 10.2134 23.2899 10.2134 23.2897C10.2134 23.2897 10.213 23.2912 10.2122 23.2931C10.2114 23.2951 10.2115 23.2945 10.2134 23.291C10.2151 23.2879 10.2208 23.2778 10.2322 23.2625C10.2431 23.2478 10.2648 23.2208 10.3002 23.189C10.3626 23.1329 10.5399 22.9997 10.8185 22.9997V24.9997C11.2037 24.9997 11.4826 24.8155 11.6375 24.6762C11.7947 24.5349 11.9008 24.3743 11.9698 24.2475C12.098 24.0122 12.2047 23.6934 12.2047 23.381H10.2047Z" fill="#0F2355" mask="url(#path-5-inside-1)"/>
</svg>
