 <svg width="18" height="17" viewBox="0 0 18 17" fill="none" xmlns="http://www.w3.org/2000/svg" >
          <rect width="18" height="17" fill="black" fill-opacity="0" />
          <rect width="3.52597" height="11.5718" fill="black" fill-opacity="0" transform="translate(0 5.42822)" />
          <rect width="3.52597" height="11.5718" fill="black" fill-opacity="0" transform="translate(0 5.42822)" />
          <path d="M2.93829 5.42822H0.587673C0.264516 5.42822 0 5.68734 0 6.00679V16.4215C0 16.7408 0.263356 17 0.587673 17H2.93829C3.26261 17 3.52597 16.7408 3.52597 16.4215V6.00679C3.52597 5.68734 3.26141 5.42822 2.93829 5.42822Z"
            fill="#18D579" />
          <rect width="13.2987" height="15.8429" fill="black" fill-opacity="0" transform="translate(4.70117)" />
          <rect width="13.2987" height="15.8429" fill="black" fill-opacity="0" transform="translate(4.70117)" />
          <path d="M16.5327 5.42825C16.438 5.41246 12.0067 5.42825 12.0067 5.42825L12.6256 3.76567C13.0527 2.61739 12.7762 0.864086 11.5912 0.240758C11.2054 0.037782 10.6663 -0.0641561 10.2316 0.0435625C9.98239 0.105314 9.76333 0.267792 9.63276 0.485479C9.4826 0.735841 9.49811 1.02809 9.44463 1.30569C9.30904 2.00981 8.97111 2.67928 8.44781 3.18177C7.53544 4.05788 4.70117 6.58539 4.70117 6.58539V15.8429H14.4955C15.8171 15.8437 16.6832 14.3906 16.0313 13.2555C16.8083 12.7656 17.0741 11.7336 16.619 10.9412C17.396 10.4512 17.6617 9.4192 17.2067 8.62682C18.5473 7.78144 18.0991 5.6891 16.5327 5.42825Z"
            fill="#18D579" />
        </svg>