<svg width="14" height="18" viewBox="0 0 14 18" fill="none"  xmlns="http://www.w3.org/2000/svg">
            <rect width="14" height="18" fill="black" fill-opacity="0" />
            <circle cx="7" cy="7" r="2" stroke="#0F2355" stroke-width="2" />
            <path d="M13 7C13 7.70909 12.6633 8.69778 12.0268 9.87372C11.4062 11.0204 10.5665 12.2272 9.70845 13.3386C8.85322 14.4464 7.99555 15.4391 7.35043 16.156C7.22485 16.2955 7.1075 16.4244 7 16.5414C6.8925 16.4244 6.77515 16.2955 6.64957 16.156C6.00445 15.4391 5.14678 14.4464 4.29155 13.3386C3.43345 12.2272 2.59383 11.0204 1.97319 9.87372C1.33672 8.69778 1 7.70909 1 7C1 3.68629 3.68629 1 7 1C10.3137 1 13 3.68629 13 7Z"
              stroke="#0F2355" stroke-width="2" />
          </svg>