<svg width="23" height="23" viewBox="0 0 23 23" fill="none" xmlns="http://www.w3.org/2000/svg">
<rect width="22.6288" height="22.6278" fill="black" fill-opacity="0"/>
<path d="M19.4468 19.4457C19.211 19.6814 18.7871 19.8193 18.0914 19.7368C17.4028 19.6552 16.5349 19.3649 15.5387 18.8667C13.5511 17.873 11.1559 16.1045 8.84018 13.7888C6.52446 11.4731 4.75604 9.07789 3.76227 7.09035C3.26415 6.09411 2.97377 5.22618 2.89217 4.53759C2.80971 3.84188 2.94757 3.41799 3.18333 3.18222C3.41909 2.94646 3.84298 2.80861 4.5387 2.89106C5.22729 2.97267 6.09521 3.26305 7.09145 3.76117C9.079 4.75494 11.4742 6.52336 13.7899 8.83908C16.1057 11.1548 17.8741 13.55 18.8678 15.5376C19.366 16.5338 19.6563 17.4017 19.7379 18.0903C19.8204 18.786 19.6825 19.2099 19.4468 19.4457Z" stroke="#0F2355"/>
<path d="M19.4454 3.18188C19.6812 3.41764 19.8191 3.84153 19.7366 4.53725C19.655 5.22583 19.3646 6.09376 18.8665 7.09C17.8727 9.07755 16.1043 11.4728 13.7886 13.7885C11.4729 16.1042 9.07765 17.8726 7.0901 18.8664C6.09386 19.3645 5.22594 19.6549 4.53735 19.7365C3.84163 19.8189 3.41774 19.6811 3.18198 19.4453C2.94622 19.2096 2.80837 18.7857 2.89082 18.09C2.97242 17.4014 3.2628 16.5334 3.76092 15.5372C4.7547 13.5497 6.52311 11.1545 8.83883 8.83873C11.1546 6.52301 13.5498 4.75459 15.5373 3.76082C16.5336 3.2627 17.4015 2.97232 18.0901 2.89071C18.7858 2.80826 19.2097 2.94611 19.4454 3.18188Z" stroke="#0F2355"/>
<circle cx="11.3145" cy="11.3137" r="1" fill="#0F2355"/>
</svg>
