<svg width="24" height="23" viewBox="0 0 24 23" fill="none" xmlns="http://www.w3.org/2000/svg">
<rect width="24" height="23" fill="black" fill-opacity="0"/>
<path d="M23.625 9.80328H14.25V8.29508H18C18.0995 8.29508 18.1948 8.25536 18.2652 8.18465C18.3355 8.11394 18.375 8.01803 18.375 7.91803V0.377049C18.375 0.27705 18.3355 0.181146 18.2652 0.110435C18.1948 0.0397247 18.0995 0 18 0H6C5.90054 0 5.80516 0.0397247 5.73484 0.110435C5.66451 0.181146 5.625 0.27705 5.625 0.377049V7.91803C5.625 8.01803 5.66451 8.11394 5.73484 8.18465C5.80516 8.25536 5.90054 8.29508 6 8.29508H9.75V9.80328H0.375C0.275544 9.80328 0.180161 9.843 0.109835 9.91371C0.0395088 9.98442 0 10.0803 0 10.1803L0 12.0656C0 12.1656 0.0395088 12.2615 0.109835 12.3322C0.180161 12.4029 0.275544 12.4426 0.375 12.4426H0.75V22.623C0.75 22.7229 0.789509 22.8189 0.859835 22.8896C0.930161 22.9603 1.02554 23 1.125 23H3C3.09946 23 3.19484 22.9603 3.26516 22.8896C3.33549 22.8189 3.375 22.7229 3.375 22.623V12.4426H15.75V22.623C15.75 22.7229 15.7895 22.8189 15.8598 22.8896C15.9302 22.9603 16.0255 23 16.125 23H22.875C22.9745 23 23.0698 22.9603 23.1402 22.8896C23.2105 22.8189 23.25 22.7229 23.25 22.623V12.4426H23.625C23.7245 12.4426 23.8198 12.4029 23.8902 12.3322C23.9605 12.2615 24 12.1656 24 12.0656V10.1803C24 10.0803 23.9605 9.98442 23.8902 9.91371C23.8198 9.843 23.7245 9.80328 23.625 9.80328ZM17.625 0.754098V5.65574H6.375V0.754098H17.625ZM6.375 6.40984H17.625V7.54098H6.375V6.40984ZM10.5 8.29508H13.5V9.80328H10.5V8.29508ZM2.625 22.2459H1.5V12.4426H2.625V22.2459ZM22.5 18.4754H16.5V15.459H22.5V18.4754ZM16.5 22.2459V19.2295H22.5V22.2459H16.5ZM22.5 14.7049H16.5V12.4426H22.5V14.7049ZM23.25 11.6885H0.75V10.5574H23.25V11.6885Z" fill="#0F2355"/>
<path d="M18.375 13.5739H20.625C20.7245 13.5739 20.8198 13.5342 20.8902 13.4635C20.9605 13.3928 21 13.2969 21 13.1969C21 13.0969 20.9605 13.001 20.8902 12.9303C20.8198 12.8595 20.7245 12.8198 20.625 12.8198H18.375C18.2755 12.8198 18.1802 12.8595 18.1098 12.9303C18.0395 13.001 18 13.0969 18 13.1969C18 13.2969 18.0395 13.3928 18.1098 13.4635C18.1802 13.5342 18.2755 13.5739 18.375 13.5739Z" fill="#0F2355"/>
<path d="M18.375 16.59H20.625C20.7245 16.59 20.8198 16.5503 20.8902 16.4796C20.9605 16.4089 21 16.313 21 16.213C21 16.113 20.9605 16.0171 20.8902 15.9464C20.8198 15.8757 20.7245 15.8359 20.625 15.8359H18.375C18.2755 15.8359 18.1802 15.8757 18.1098 15.9464C18.0395 16.0171 18 16.113 18 16.213C18 16.313 18.0395 16.4089 18.1098 16.4796C18.1802 16.5503 18.2755 16.59 18.375 16.59Z" fill="#0F2355"/>
<path d="M20.625 19.6064H18.375C18.2755 19.6064 18.1802 19.6462 18.1098 19.7169C18.0395 19.7876 18 19.8835 18 19.9835C18 20.0835 18.0395 20.1794 18.1098 20.2501C18.1802 20.3208 18.2755 20.3605 18.375 20.3605H20.625C20.7245 20.3605 20.8198 20.3208 20.8902 20.2501C20.9605 20.1794 21 20.0835 21 19.9835C21 19.8835 20.9605 19.7876 20.8902 19.7169C20.8198 19.6462 20.7245 19.6064 20.625 19.6064Z" fill="#0F2355"/>
<path d="M7.125 5.2789H7.875C7.97446 5.2789 8.06984 5.23917 8.14017 5.16846C8.21049 5.09775 8.25 5.00185 8.25 4.90185C8.25 4.80185 8.21049 4.70594 8.14017 4.63523C8.06984 4.56452 7.97446 4.5248 7.875 4.5248H7.5V3.39365C7.5 3.29365 7.46049 3.19775 7.39017 3.12704C7.31984 3.05633 7.22446 3.0166 7.125 3.0166C7.02554 3.0166 6.93016 3.05633 6.85983 3.12704C6.78951 3.19775 6.75 3.29365 6.75 3.39365V4.90185C6.75 5.00185 6.78951 5.09775 6.85983 5.16846C6.93016 5.23917 7.02554 5.2789 7.125 5.2789Z" fill="#0F2355"/>
<path d="M9 5.279H9.75C9.84946 5.279 9.94484 5.23928 10.0152 5.16857C10.0855 5.09786 10.125 5.00195 10.125 4.90195C10.125 4.80195 10.0855 4.70605 10.0152 4.63534C9.94484 4.56463 9.84946 4.5249 9.75 4.5249H9C8.90054 4.5249 8.80516 4.56463 8.73483 4.63534C8.66451 4.70605 8.625 4.80195 8.625 4.90195C8.625 5.00195 8.66451 5.09786 8.73483 5.16857C8.80516 5.23928 8.90054 5.279 9 5.279Z" fill="#0F2355"/>
</svg>
