<svg width="29" height="23" viewBox="0 0 29 23" fill="none" xmlns="http://www.w3.org/2000/svg">
<rect width="29.0004" height="22" fill="black" fill-opacity="0"/>
<rect x="0.5" y="0.5" width="19.7141" height="17.4516" rx="0.5" stroke="#0F2355"/>
<rect x="22.5957" y="0.5" width="5.9047" height="17.4516" rx="0.5" stroke="#0F2355"/>
<path d="M25.5474 18.4517V18.4517C25.5474 20.4114 23.9587 22 21.999 22H20.8101C18.8504 22 17.2617 20.4114 17.2617 18.4517V18.4517" stroke="#0F2355"/>
<rect x="3.26172" y="3.33887" width="14.1903" height="3.25805" rx="0.5" stroke="#0F2355"/>
<rect x="2.76172" y="8.51611" width="4.14282" height="1.41935" rx="0.709675" fill="#0F2355"/>
<rect x="8.28516" y="8.51611" width="4.14282" height="1.41935" rx="0.709675" fill="#0F2355"/>
<rect x="13.8086" y="8.51611" width="4.14282" height="1.41935" rx="0.709675" fill="#0F2355"/>
<rect x="2.76172" y="11.355" width="4.14282" height="1.41935" rx="0.709675" fill="#0F2355"/>
<rect x="8.28516" y="11.355" width="4.14282" height="1.41935" rx="0.709675" fill="#0F2355"/>
<rect x="13.8086" y="11.355" width="4.14282" height="1.41935" rx="0.709675" fill="#0F2355"/>
<rect x="2.76172" y="14.1934" width="4.14282" height="1.41935" rx="0.709675" fill="#0F2355"/>
<rect x="8.28516" y="14.1934" width="4.14282" height="1.41935" rx="0.709675" fill="#0F2355"/>
<rect x="13.8086" y="14.1934" width="4.14282" height="1.41935" rx="0.709675" fill="#0F2355"/>
</svg>
