<svg width="29" height="28" viewBox="0 0 29 28" fill="none" xmlns="http://www.w3.org/2000/svg">
<rect width="29" height="28" fill="black" fill-opacity="0"/>
<path d="M27.5501 22.9895C24.6653 21.4348 22.4526 20.563 20.4829 20.2288L20.6867 19.9439C20.7834 19.8457 20.8317 19.6983 20.7834 19.5509L20.3265 17.6934C21.5048 15.9749 22.1814 13.8301 22.1367 11.7895V8.86741C22.1695 8.84341 22.2018 8.81866 22.2334 8.79298C22.8617 8.25261 23.2001 7.46666 23.2001 6.68071C23.2001 2.99648 20.2518 0 16.6751 0H12.3734C8.74839 0 5.80007 2.99648 5.7517 6.63161C5.7517 7.46672 6.09001 8.20356 6.71838 8.74388C6.73419 8.75625 6.75067 8.76777 6.7667 8.7798V11.7895C6.7667 13.8364 7.47165 15.9883 8.66966 17.7095L8.2167 19.5509C8.2167 19.6491 8.2167 19.7965 8.31339 19.9439L8.51724 20.2287C6.5475 20.563 4.33472 21.4347 1.45006 22.9895C0.531687 23.4316 0 24.3649 0 25.3965V27.5088C0 27.8035 0.193315 28 0.483315 28H28.5167C28.8067 28 29 27.8035 29 27.5088V25.3965C29.0001 24.4141 28.4201 23.4807 27.5501 22.9895ZM19.575 18.6667L19.7684 19.5509L19.2746 20.2399C19.2431 20.2661 19.214 20.2978 19.1884 20.3369L16.53 24.0702L15.2268 21.0778C16.6328 20.9059 17.9024 20.2437 18.9584 19.278C19.1705 19.088 19.3764 18.8841 19.575 18.6667ZM21.605 8.00697C21.5924 8.01826 21.5791 8.02873 21.5661 8.03961C21.5118 8.05245 21.4591 8.07312 21.4117 8.10524C21.2026 8.26464 20.9793 8.36601 20.7497 8.41051C20.5675 8.43889 20.3822 8.43636 20.2034 8.39998C16.7368 7.731 13.2304 7.66946 9.865 8.21519C9.49152 8.27005 9.11922 8.33142 8.74839 8.39998C8.68886 8.40671 8.62933 8.4104 8.56991 8.4116C8.18136 8.40452 7.80481 8.2948 7.4917 8.05614C7.2017 7.85966 7.00838 7.56492 6.9117 7.27019L8.99002 6.87718C12.615 6.18944 16.3367 6.18944 20.0584 6.87718L22.1205 7.26708C22.0135 7.54518 21.8352 7.80227 21.605 8.00697ZM12.325 0.982422H16.6267C19.5915 0.982422 22.023 3.32893 22.2201 6.29191L20.2034 5.94386C16.3851 5.25612 12.5184 5.25612 8.7967 5.94386L6.78001 6.29191C6.97695 3.32893 9.40661 0.982422 12.325 0.982422ZM7.73333 9.28419C8.12002 9.38246 8.55502 9.43156 8.99002 9.33329C10.7946 8.99095 12.6232 8.81912 14.4638 8.81762C16.3046 8.81912 18.1573 8.99089 20.01 9.33329C20.1421 9.36686 20.2514 9.37728 20.3537 9.38067C20.658 9.4041 20.976 9.35805 21.2667 9.28419V11.7895C21.2667 13.9314 20.5437 15.8349 19.4582 17.2817L19.43 17.2912C19.3817 17.3403 19.3333 17.3895 19.285 17.4386C19.0418 17.7681 18.7852 18.0685 18.517 18.3394C17.3169 19.4758 15.8728 20.1403 14.5 20.1403H14.5C14.4497 20.1403 14.3996 20.1393 14.3495 20.1377C13.5328 20.1091 12.6952 19.8492 11.9021 19.3987C11.1151 18.9392 10.3748 18.2768 9.71502 17.4385C9.66671 17.3894 9.61833 17.3403 9.57002 17.2912L9.54181 17.2816C8.45635 15.8347 7.73333 13.9313 7.73333 11.7894V9.28419ZM13.7733 21.0778L12.47 24.0702L9.81171 20.3369C9.7963 20.3212 9.77931 20.3057 9.76163 20.2905L9.2317 19.5509L9.42502 18.6666C9.49038 18.7382 9.55671 18.8079 9.6236 18.8765C10.7608 20.0588 12.1797 20.8831 13.7733 21.0778ZM28.0334 27.0176H16.9167H0.966687V25.3965C0.966687 24.7579 1.305 24.1685 1.885 23.8737C4.96586 22.2103 7.18363 21.3754 9.15926 21.126L12.18 25.3474C12.2559 25.4632 12.3621 25.5178 12.4977 25.5361C12.5205 25.5407 12.5436 25.5439 12.5667 25.5439C12.5667 25.5439 12.615 25.5439 12.615 25.593C12.76 25.593 12.9533 25.4456 13.0017 25.2983L14.5027 21.8657L15.1422 23.2914L15.9983 25.2491C16.0467 25.3965 16.1917 25.5439 16.385 25.5439H16.4333C16.5783 25.5439 16.7233 25.4456 16.82 25.3474L19.872 21.0823C21.8407 21.3843 24.0983 22.2185 27.1151 23.8246C27.6951 24.1684 28.0334 24.7579 28.0334 25.3965V27.0176Z" fill="#0F2355"/>
<path d="M13.5341 4.91222H15.4674C15.7574 4.91222 15.9507 4.71575 15.9507 4.42101V1.96484C15.9507 1.67011 15.7574 1.47363 15.4674 1.47363H13.5341C13.2441 1.47363 13.0508 1.67011 13.0508 1.96484V4.42101C13.0508 4.71575 13.2441 4.91222 13.5341 4.91222ZM14.0175 2.45611H14.9842V3.9298H14.0175V2.45611Z" fill="#0F2355"/>
</svg>
