<svg width="22" height="25" viewBox="0 0 22 25" fill="none" xmlns="http://www.w3.org/2000/svg">
<path d="M20.014 18.8653L19.9247 18.8401C18.6201 18.4922 18.1781 18.1595 17.5974 17.9406C17.1462 17.7705 16.768 17.6102 16.4507 17.4607C17.2532 17.3249 17.984 17.1555 18.6393 16.951C20.1279 16.4864 20.6824 16.0042 20.7402 15.9508L21.1776 15.5503L20.7217 15.1703C19.6004 14.2365 19.3825 12.0743 19.1522 9.78509C18.9243 7.52145 18.6886 5.18075 17.6128 3.30086C16.346 1.08795 14.1704 0.0083985 10.9584 0C7.74938 0.00844733 5.57387 1.088 4.30784 3.3009C3.23202 5.1808 2.99638 7.52149 2.76843 9.78513C2.53737 12.0743 2.32021 14.2365 1.19899 15.1704L0.742305 15.5503L1.17972 15.9509C1.23823 16.0043 1.79191 16.4865 3.28056 16.9511C3.95209 17.1601 4.70293 17.3341 5.52769 17.4714C5.21501 17.6171 4.84384 17.7735 4.40257 17.9406C3.82193 18.1595 3.37988 18.4922 2.07536 18.8401L1.98605 18.8653C0.79859 19.2544 0 20.3453 0 21.5767V25H6.79302H11H15.2055H22V21.5767C22 20.3453 21.2014 19.2544 20.014 18.8653ZM16.6979 3.81439C17.1869 4.66888 17.4857 5.6622 17.6898 6.71431C15.619 6.43355 13.8023 5.30976 12.882 4.64598C14.0965 3.39397 14.8643 2.32702 15.0576 2.05085C15.7306 2.48723 16.2697 3.06706 16.6979 3.81439ZM12.621 18.4869L11.9095 17.553C12.5179 17.3677 13.1685 17.0213 13.8069 16.5482L13.8894 16.7283C13.8963 16.7451 13.9102 16.7771 13.9286 16.813C14.0172 16.9839 14.1427 17.1464 14.2944 17.3005L12.621 18.4869ZM14.1543 18.6814V21.0068L11.4913 20.8618C11.4898 20.8618 11.4875 20.8618 11.4859 20.8618V18.7257L12.3993 19.925L14.1543 18.6814ZM12.5717 16.1164C11.968 16.472 11.3958 16.6673 10.9599 16.6673C10.524 16.6673 9.95185 16.472 9.34888 16.1164C8.67271 15.7197 7.99655 15.149 7.39279 14.4677C6.02435 12.9224 5.23729 11.0562 5.23192 9.34529C6.14993 9.14919 7.07479 8.81848 7.99813 8.35539C9.25415 7.72521 10.511 6.84932 11.7339 5.75224C11.8679 5.63173 11.9988 5.51157 12.1258 5.3914C12.9413 5.9998 14.5362 7.03819 16.4784 7.53717C16.6178 8.1025 16.6879 8.70178 16.6879 9.32815C16.6879 11.0436 15.9001 12.917 14.527 14.4677C13.9232 15.149 13.247 15.7197 12.5717 16.1164ZM7.84563 18.7372L9.52138 19.925L10.4347 18.7257V20.8626L7.84563 21.0053V18.7372ZM7.67313 17.3341C7.83947 17.1701 7.9758 16.9969 8.07048 16.8145C8.08896 16.7771 8.10281 16.7466 8.1105 16.7283L8.1729 16.5917C8.79213 17.0426 9.42128 17.373 10.0112 17.553L9.29959 18.4869L7.67313 17.3341ZM5.22265 3.81439C5.72552 2.93469 6.3832 2.28625 7.23261 1.8319C8.20602 1.31158 9.46051 1.04566 10.9583 1.04185C12.1805 1.04488 13.2386 1.22154 14.1141 1.56754C13.7653 2.05085 12.644 3.53323 11.0099 4.99618C9.85865 6.0269 8.68114 6.84629 7.51137 7.43185C6.31617 8.02999 5.1264 8.38288 3.96358 8.48547C4.16378 6.79327 4.46487 5.13769 5.22265 3.81439ZM3.72952 15.9974C3.09495 15.8082 2.65216 15.6175 2.3595 15.4679C3.38298 14.1739 3.59319 12.0842 3.81424 9.8885C3.82656 9.77215 3.83809 9.65579 3.84968 9.53948C3.96057 9.53186 4.0722 9.52268 4.1831 9.51126C4.24776 11.91 5.5616 14.1877 7.15262 15.7304L7.14872 16.3087C7.14409 16.3179 7.14024 16.3285 7.13561 16.3377C7.09944 16.4079 7.03472 16.4987 6.92151 16.6093C5.81794 16.4842 4.71362 16.2919 3.72952 15.9974ZM6.79455 21.0633H6.79223C6.50346 21.0793 6.17921 21.3097 6.07221 21.576L5.93667 21.9116C5.82883 22.1772 5.8273 22.6136 5.93282 22.8798L6.07531 23.2391C6.15003 23.4284 6.21469 23.7091 6.24628 23.9579H1.05113V21.5767C1.05113 20.8001 1.55169 20.1127 2.29947 19.8593L2.35802 19.8425C3.34143 19.581 3.88437 19.3238 4.32021 19.1163C4.48887 19.0362 4.63521 18.9668 4.7769 18.9134C5.40146 18.6784 6.15156 18.3702 6.79149 17.9902L6.79455 17.9917V21.0633ZM15.0815 22.5022L14.9506 22.8272C14.8243 23.14 14.7257 23.5802 14.6926 23.9579H11H7.30348C7.26883 23.5886 7.17411 23.1636 7.05399 22.8592L6.91614 22.5098C6.90308 22.4572 6.90308 22.3404 6.91693 22.2886L6.9947 22.0955L10.5002 21.9025C10.6204 21.8956 10.7921 21.8918 10.9715 21.8918C11.147 21.8918 11.3157 21.8956 11.4343 21.9025L15.0045 22.0963L15.0815 22.287C15.0946 22.3389 15.0946 22.4503 15.0815 22.5022ZM15.0707 16.6016C14.9621 16.4948 14.8997 16.4063 14.8643 16.3377C14.8597 16.3285 14.8558 16.3179 14.8512 16.3087L14.8465 15.6525C16.4422 14.0717 17.7398 11.7539 17.7398 9.3281C17.7398 8.77878 17.6913 8.25314 17.5996 7.75338C17.6882 7.76481 17.7768 7.77511 17.8661 7.7839C17.9639 8.47892 18.0355 9.18772 18.1056 9.88846C18.3267 12.0842 18.5377 14.1732 19.5604 15.4679C18.9251 15.7899 17.5689 16.3094 15.0707 16.6016ZM20.9489 23.9579H15.7491C15.7799 23.7023 15.8477 23.4085 15.9263 23.2132L16.0618 22.8783C16.1696 22.612 16.1696 22.1772 16.0618 21.9116L15.9263 21.576C15.8192 21.3097 15.495 21.0793 15.2062 21.0633H15.2055V17.9887C15.847 18.3686 16.5978 18.6776 17.2239 18.9141C17.3648 18.9667 17.5111 19.0362 17.6798 19.1163C18.1157 19.3238 18.6586 19.581 19.642 19.8425L19.7005 19.8593C20.4483 20.1127 20.9489 20.8001 20.9489 21.5767V23.9579Z" fill="#0F2355"/>
</svg>
