<svg width="21" height="26" viewBox="0 0 21 26" fill="none" xmlns="http://www.w3.org/2000/svg">
<rect width="21" height="26" fill="black" fill-opacity="0"/>
<rect width="21" height="26" fill="black" fill-opacity="0"/>
<rect width="21" height="26" fill="black" fill-opacity="0"/>
<path d="M19.9418 2.64122L11.5018 0.145374C10.8466 -0.0484579 10.1536 -0.0484579 9.49821 0.145374L1.05831 2.64117C0.435185 2.8254 0 3.40898 0 4.0604V11.0689C0 14.3124 0.962897 17.4356 2.78462 20.1009C4.56314 22.703 7.03827 24.7049 9.94215 25.8899C10.122 25.9633 10.311 26 10.5001 26C10.6891 26 10.8781 25.9632 11.0579 25.8899C13.9618 24.7049 16.4369 22.7031 18.2154 20.1009C20.0371 17.4356 21 14.3124 21 11.0689V4.06045C21.0001 3.40903 20.5649 2.8254 19.9418 2.64122ZM19.8196 11.0689C19.8196 14.0724 18.9281 16.9642 17.2417 19.4316C15.5943 21.8419 13.3021 23.6961 10.613 24.7934C10.5402 24.8231 10.46 24.8231 10.3872 24.7934C7.69801 23.6961 5.40581 21.842 3.7584 19.4316C2.072 16.9642 1.18057 14.0725 1.18057 11.0689V4.0604C1.18057 3.93015 1.26762 3.81345 1.39226 3.77658L9.83221 1.28074C10.0507 1.21609 10.2754 1.18385 10.5001 1.18385C10.7248 1.18385 10.9495 1.21615 11.1679 1.28079L19.608 3.77658C19.7325 3.8134 19.8196 3.93009 19.8196 4.0604V11.0689Z" fill="#0F2355"/>
<rect width="14.3512" height="19.0275" fill="black" fill-opacity="0" transform="translate(3.32422 3.3623)"/>
<rect width="14.3512" height="19.0275" fill="black" fill-opacity="0" transform="translate(3.32422 3.3623)"/>
<path d="M17.0405 5.25875L10.7502 3.39864C10.5864 3.35024 10.4133 3.35014 10.2494 3.39864L3.95925 5.25875C3.58539 5.36935 3.32422 5.71954 3.32422 6.11035V11.069C3.32422 13.6892 4.11467 16.2024 5.60999 18.3369C6.76934 19.992 8.31849 21.3585 10.0899 22.2887C10.2182 22.3561 10.359 22.3898 10.4998 22.3898C10.6406 22.3898 10.7814 22.3561 10.9098 22.2887C12.6811 21.3585 14.2303 19.9919 15.3897 18.3369C16.885 16.2024 17.6755 13.6892 17.6755 11.069V6.11035C17.6754 5.71944 17.4143 5.3693 17.0405 5.25875ZM16.4949 11.069C16.4949 13.4444 15.7787 15.7223 14.4237 17.6565C13.4021 19.1148 12.0479 20.3256 10.4998 21.1665C8.95175 20.3256 7.59747 19.1148 6.57593 17.6565C5.22094 15.7223 4.50473 13.4444 4.50473 11.069V6.33161L10.4998 4.55873L16.4949 6.33161V11.069Z" fill="#0F2355"/>
</svg>
