 <svg width="20" height="14" viewBox="0 0 20 14" fill="none" xmlns="http://www.w3.org/2000/svg" >
                <path d="M18 9.94118H18.5C18.5 9.66503 18.2761 9.44118 18 9.44118V9.94118ZM0.5 0C0.5 -0.276142 0.276142 -0.5 0 -0.5C-0.276142 -0.5 -0.5 -0.276142 -0.5 0H0.5ZM3 6.88235H2.5C2.5 7.1585 2.72386 7.38235 3 7.38235V6.88235ZM6 6.88235V7.38235H6.5V6.88235H6ZM6 5.35294H6.5C6.5 5.0768 6.27614 4.85294 6 4.85294V5.35294ZM3 5.35294V4.85294C2.72386 4.85294 2.5 5.0768 2.5 5.35294H3ZM18 7.38235C18.2761 7.38235 18.5 7.1585 18.5 6.88235C18.5 6.60621 18.2761 6.38235 18 6.38235V7.38235ZM0.5 13V9.94118H-0.5V13H0.5ZM0 10.4412H18V9.44118H0V10.4412ZM17.5 9.94118V13H18.5V9.94118H17.5ZM0.5 9.94118V0H-0.5V9.94118H0.5ZM3 7.38235H6V6.38235H3V7.38235ZM6.5 6.88235V5.35294H5.5V6.88235H6.5ZM6 4.85294H3V5.85294H6V4.85294ZM2.5 5.35294V6.88235H3.5V5.35294H2.5ZM8.25 7.38235H18V6.38235H8.25V7.38235Z"
                  transform="translate(1 1)" fill="#0F2355" fill-opacity="0.5" />
              </svg>