<svg width="18" height="15" viewBox="0 0 18 15" fill="none"  xmlns="http://www.w3.org/2000/svg">
                <g opacity="0.5">
                  <mask id="path-1-inside-1" fill="white">
                    <path d="M0 1C0 0.447715 0.447715 0 1 0H3C3.55228 0 4 0.447715 4 1H0Z" />
                  </mask>
                  <path d="M1 1H3V-1H1V1ZM4 0H0V2H4V0ZM3 1H5C5 -0.104569 4.10457 -1 3 -1V1ZM1 -1C-0.104569 -1 -1 -0.104569 -1 1H1V-1Z"
                    transform="translate(6 3)" fill="#0F2355" mask="url(#path-1-inside-1)" />
                  <path d="M0.5 1.5C0.5 0.947715 0.947715 0.5 1.5 0.5H14.5C15.0523 0.5 15.5 0.947715 15.5 1.5C15.5 3.70914 13.7091 5.5 11.5 5.5H4.5C2.29086 5.5 0.5 3.70914 0.5 1.5Z"
                    transform="translate(1 7)" stroke="#0F2355" stroke-linecap="round" stroke-linejoin="round" />
                  <path d="M0.642857 0L0 1.27273" transform="translate(3.21436 12.7273)" stroke="#0F2355"
                    stroke-linecap="round" stroke-linejoin="round" />
                  <rect x="0.25" y="0.25" width="17.5" height="0.5" rx="0.25" transform="translate(0 7)" stroke="#0F2355"
                    stroke-width="0.5" />
                  <path d="M1.74756e-08 6C1.74756e-08 6 0.000125717 4.27452 1.74756e-08 2.4C-0.000120685 0.6 0.625 0 2.5 0C4.375 0 5 1.2 5 2.4"
                    transform="translate(3 1)" stroke="#0F2355" />
                  <path d="M0.642857 0L0 1.27273" transform="translate(14.7856 12.7273) scale(-1 1)" stroke="#0F2355"
                    stroke-linecap="round" stroke-linejoin="round" />
                </g>
              </svg>