<svg width="27" height="23" viewBox="0 0 27 23" fill="none" xmlns="http://www.w3.org/2000/svg">
<rect width="27" height="23" fill="black" fill-opacity="0"/>
<path d="M4 9.5H3.5V10V22.5H0.5V6.37676L13.5 0.547959L26.5 6.37676V22.5H23.5V10V9.5H23H4Z" stroke="#0F2355"/>
<path d="M10.5 14.5V12.5H12.5V14.5H10.5Z" stroke="#0F2355"/>
<path d="M6.547 14.5L6.54748 12.5H8.49927V14.5H6.547Z" stroke="#0F2355"/>
<path d="M10.4531 18.5V16.5H12.4531V18.5H10.4531Z" stroke="#0F2355"/>
<path d="M6.50012 18.5L6.5006 16.5H8.4524V18.5H6.50012Z" stroke="#0F2355"/>
<path d="M10.4531 22.5V20.5H12.4531V22.5H10.4531Z" stroke="#0F2355"/>
<path d="M6.50012 22.5L6.5006 20.5H8.4524V22.5H6.50012Z" stroke="#0F2355"/>
<path d="M18.4531 18.5V16.5H20.4531V18.5H18.4531Z" stroke="#0F2355"/>
<path d="M14.5001 18.5L14.5006 16.5H16.4524V18.5H14.5001Z" stroke="#0F2355"/>
<path d="M18.4531 22.5V20.5H20.4531V22.5H18.4531Z" stroke="#0F2355"/>
<path d="M14.5001 22.5L14.5006 20.5H16.4524V22.5H14.5001Z" stroke="#0F2355"/>
</svg>
