<svg width="33" height="31" viewBox="0 0 33 31" fill="none" xmlns="http://www.w3.org/2000/svg">
              <path d="M2.71621 12.6518L0.0075328 0.218599C-0.0306382 0.0371521 0.0802055 -0.0473274 0.250507 0.0268676L14.8737 6.08221C15.041 6.1542 15.0469 6.2879 14.884 6.37238L2.71988 12.6518H2.71621Z"
                transform="translate(1.85986)" fill="white" />
              <path d="M15.779 17.2306L19.091 0.297958C19.1402 0.0364388 18.9912 -0.0730172 18.7607 0.051131L0.175808 9.84782C-0.0598244 9.96756 -0.0583523 10.1659 0.178749 10.2893L15.7848 17.2306H15.779Z"
                transform="translate(11.2383 5.2876)" fill="white" />
              <path d="M32.8601 14.8701L0.28995 0.0325874C0.0910197 -0.0562998 -0.0337666 0.0428719 0.00807476 0.254438L2.44368 12.8132C3.01258 15.0332 3.01258 15.0332 5.92972 15.0332H8.36239V9.26216L12.5737 11.1831V15.0332H32.8242C33.0444 15.0332 33.0591 14.959 32.8609 14.8701H32.8601Z"
                transform="translate(0 15.9668)" fill="white" />
            </svg>