<?xml version="1.0" encoding="UTF-8" standalone="no"?>
<!-- Generator: Adobe Illustrator 16.0.0, SVG Export Plug-In . SVG Version: 6.00 Build 0)  -->
<!DOCTYPE svg  PUBLIC '-//W3C//DTD SVG 1.1//EN'  'http://www.w3.org/Graphics/SVG/1.1/DTD/svg11.dtd'>
<svg id="Layer_2" xmlns="http://www.w3.org/2000/svg" xml:space="preserve" height="42px" viewBox="0 0 128 42" width="128px" version="1.1" y="0px" x="0px" xmlns:xlink="http://www.w3.org/1999/xlink" enable-background="new 0 0 128 42">
	<g fill="#115dca">
			<path d="m90.719 17.252l-3.69-16.925c-0.052-0.247 0.099-0.362 0.331-0.261l19.921 8.243c0.228 0.098 0.236 0.28 0.014 0.395l-16.571 8.548z"/>
			<path d="m121.29 30.683l4.512-23.05c0.067-0.356-0.136-0.505-0.45-0.336l-25.318 13.336c-0.321 0.163-0.319 0.433 0.004 0.601l21.26 9.449z"/>
		<path d="m129.25 42.007l-44.37-20.198c-0.271-0.121-0.441 0.014-0.384 0.302l3.318 17.096c0.775 3.022 0.775 3.022 4.749 3.022h3.314v-7.856l5.737 2.615v5.241h27.587c0.3 0 0.32-0.101 0.05-0.222z"/>
					<rect x="65.387" height="16.87" width="3.444"/>
					<path d="m76.073 16.193v-9.18h-3.448v9.324c0 1.436-1.149 2.584-2.584 2.584v3.3c3.338 0.001 6.032-2.689 6.032-6.028z"/>
					<rect y="18.921" x="30.625" height="3.3" width="3.444"/>
					<path d="m53.759 1.862h-5.187v3.228h5.187c3.014 0 5.311 2.622 5.311 5.672 0 1.049-0.284 2.033-0.774 2.878h-3.004c0.403-0.716 0.714-1.509 0.714-2.34 0-2.986-2.391-5.54-5.421-5.54-2.986 0-5.418 2.554-5.418 5.54 0 0.832 0.3 1.625 0.693 2.34h-5.147v-9.06h-3.446v9.06h-7.99c-1.438 0-2.587-1.222-2.587-2.657v-6.402h-3.445v6.435c0 3.339 2.69 5.855 6.032 5.855h30.936c1.528-1.587 2.482-3.732 2.482-6.108 0-4.953-4.056-8.901-8.936-8.901zm-3.172 12.086c-1.847 0-2.757-1.146-2.757-2.693 0-1.552 1.235-2.808 2.757-2.808 1.525 0 2.761 1.255 2.761 2.808 0 1.547-1.047 2.693-2.761 2.693z"/>
				<rect y="1.859" x="72.634" height="3.296" width="3.439"/>
				<path d="m32.407 24.966c-3.344 0-6.039 2.694-6.039 6.039v11.175h3.451v-5.303h5.174v5.303h3.452v-11.175c0-3.345-2.695-6.039-6.038-6.039zm2.586 8.852h-5.174v-2.959c0-1.438 1.15-2.587 2.588-2.587 1.436 0 2.586 1.148 2.586 2.587v2.959z"/>
				<polygon points="50.181 31.774 44.596 31.774 44.596 25.288 41.145 25.288 41.145 42.18 44.596 42.18 44.596 34.791 50.181 34.791 50.181 42.18 53.633 42.18 53.633 25.288 50.181 25.288"/>
				<rect y="25.288" x="56.99" height="16.892" width="3.451"/>
				<path d="m73.737 33.195c0.861-0.758 1.76-1.834 1.76-3.381 0-2.586-2.085-4.526-4.563-4.526h-7.169v16.892h7.275c2.697 0 5.033-2.265 5.033-4.997 0-1.797-1.008-3.271-2.336-3.988zm-6.525-4.745h2.929c0.936 0 1.69 0.755 1.69 1.652 0 0.9-0.755 1.654-1.69 1.654h-2.929v-3.306zm3.072 10.494h-3.072v-4.099h3.072c1.115 0 2.015 0.937 2.015 2.051 0 1.151-0.9 2.048-2.015 2.048z"/>
				<path d="m17.627 24.966c-3.342 0-6.039 2.694-6.039 6.039v7.939h-6.591l6.059-13.656h-11.009v3.162h6.011l-6.058 13.73h15.041v-5.303h5.174v5.303h3.453v-11.175c-0.001-3.345-2.698-6.039-6.041-6.039zm2.587 8.852h-5.174v-2.959c0-1.438 1.151-2.587 2.587-2.587 1.438 0 2.587 1.148 2.587 2.587v2.959z"/>
	</g>
</svg>
