<svg width="24" height="24" viewBox="0 0 24 24" fill="none" xmlns="http://www.w3.org/2000/svg">
  <mask id="path-1-inside-1" fill="white">
    <path d="M16.3017 10.1143C16.9497 9.88687 17.6285 9.99444 18.3554 10.1541C18.8352 10.2598 19.3315 10.3695 19.8883 10.3695C20.6335 10.3695 21.3311 10.1654 22.0211 9.74587C23.0847 9.09912 23.8123 7.94213 23.9676 6.65106C24.1447 5.17582 23.592 3.71229 22.4109 2.53124C21.2385 1.35872 19.6733 0.713349 18.0039 0.713349C16.3001 0.713349 14.6935 1.38173 13.4799 2.59515C11.963 4.11218 10.9762 6.53088 10.9591 8.74915C10.5982 8.48643 10.2786 8.1646 10.1144 7.69787C9.86036 6.97607 9.99663 6.35875 10.1541 5.64402C10.3702 4.66502 10.6387 3.44656 9.74604 1.97791C9.00405 0.75807 7.61485 0 6.12021 0C4.83086 0 3.55663 0.564142 2.5321 1.58835C0.087471 4.03396 0.116741 8.04068 2.59641 10.52C4.09333 12.0175 6.55316 13.0257 8.74322 13.0504C8.48133 13.4078 8.16115 13.7225 7.69835 13.8856C7.0514 14.1139 6.37258 14.007 5.64449 13.8459C5.16486 13.7402 4.66849 13.6305 4.11138 13.6305C3.36654 13.6305 2.66885 13.8344 1.97889 14.2539C0.915328 14.9008 0.187721 16.0577 0.032427 17.3489C-0.144739 18.8241 0.408223 20.2877 1.58903 21.4686C2.76138 22.6411 4.32668 23.2864 5.99622 23.2864C7.6999 23.2864 9.30667 22.618 10.5202 21.4047C12.0371 19.8877 13.0238 17.469 13.041 15.2508C13.4017 15.5134 13.7213 15.8353 13.8857 16.3019C14.1397 17.0237 14.0035 17.641 13.8459 18.3558C13.6298 19.3347 13.3613 20.5533 14.2541 22.0219C14.996 23.2419 16.3853 24 17.88 24C19.1694 24 20.4436 23.4358 21.4682 22.4117C23.9123 19.9665 23.8836 15.9598 21.4038 13.48C19.9068 11.9824 17.4469 10.9742 15.2571 10.9497C15.5188 10.5922 15.8391 10.2774 16.3017 10.1143ZM13.0241 13.0242C12.4772 13.5712 11.5228 13.5712 10.9759 13.0242C10.4114 12.4592 10.4114 11.5408 10.9759 10.9758C11.2493 10.7023 11.613 10.5518 12 10.5518C12.3871 10.5518 12.7506 10.7023 13.0242 10.9758C13.5886 11.5408 13.5886 12.4592 13.0241 13.0242Z"
    />
  </mask>
  <path d="M16.3017 10.1143L15.9706 9.17072L15.9692 9.1712L16.3017 10.1143ZM18.3554 10.1541L18.5705 9.17756L18.57 9.17743L18.3554 10.1541ZM22.0211 9.74587L22.5406 10.6004L22.5407 10.6003L22.0211 9.74587ZM23.9676 6.65106L24.9604 6.77049L24.9605 6.77025L23.9676 6.65106ZM22.4109 2.53124L21.7038 3.23832L21.7038 3.23837L22.4109 2.53124ZM13.4799 2.59515L12.7728 1.88797L12.7727 1.88809L13.4799 2.59515ZM10.9591 8.74915L10.3706 9.55764L11.9441 10.703L11.9591 8.75685L10.9591 8.74915ZM10.1144 7.69787L11.0578 7.36608L11.0577 7.36584L10.1144 7.69787ZM10.1541 5.64402L9.17763 5.42846L9.17755 5.42883L10.1541 5.64402ZM9.74604 1.97791L10.6006 1.45852L10.6004 1.45823L9.74604 1.97791ZM2.5321 1.58835L1.8251 0.881124L1.82485 0.881382L2.5321 1.58835ZM2.59641 10.52L3.30364 9.81306L3.30347 9.81289L2.59641 10.52ZM8.74322 13.0504L9.54982 13.6415L10.6997 12.0723L8.75447 12.0504L8.74322 13.0504ZM7.69835 13.8856L7.36595 12.9425L7.36555 12.9426L7.69835 13.8856ZM5.64449 13.8459L5.8606 12.8695L5.85956 12.8693L5.64449 13.8459ZM1.97889 14.2539L1.45939 13.3994L1.45922 13.3995L1.97889 14.2539ZM0.032427 17.3489L-0.960417 17.2294L-0.960439 17.2296L0.032427 17.3489ZM1.58903 21.4686L2.29619 20.7615L2.29616 20.7615L1.58903 21.4686ZM10.5202 21.4047L11.2273 22.1119L11.2274 22.1118L10.5202 21.4047ZM13.041 15.2508L13.6297 14.4424L12.0562 13.2966L12.0411 15.243L13.041 15.2508ZM13.8857 16.3019L14.829 15.9699L14.8289 15.9695L13.8857 16.3019ZM13.8459 18.3558L14.8224 18.5714L14.8224 18.5712L13.8459 18.3558ZM14.2541 22.0219L13.3995 22.5414L13.3997 22.5416L14.2541 22.0219ZM21.4682 22.4117L22.1751 23.1189L22.1754 23.1186L21.4682 22.4117ZM21.4038 13.48L20.6965 14.1869L20.6967 14.1871L21.4038 13.48ZM15.2571 10.9497L14.4501 10.3591L13.3021 11.9279L15.2459 11.9496L15.2571 10.9497ZM13.0241 13.0242L13.7313 13.7313L13.7316 13.731L13.0241 13.0242ZM10.9759 13.0242L10.2685 13.731L10.2687 13.7313L10.9759 13.0242ZM10.9759 10.9758L10.2687 10.2687L10.2685 10.269L10.9759 10.9758ZM13.0242 10.9758L13.7317 10.2691L13.7311 10.2685L13.0242 10.9758ZM16.6329 11.0579C16.9863 10.9338 17.4094 10.9702 18.1408 11.1308L18.57 9.17743C17.8475 9.01872 16.9132 8.83989 15.9706 9.17072L16.6329 11.0579ZM18.1402 11.1307C18.6095 11.2341 19.2073 11.3695 19.8883 11.3695V9.36945C19.4558 9.36945 19.0608 9.28558 18.5705 9.17756L18.1402 11.1307ZM19.8883 11.3695C20.8321 11.3695 21.7077 11.1067 22.5406 10.6004L21.5017 8.89138C20.9544 9.22405 20.4348 9.36945 19.8883 9.36945V11.3695ZM22.5407 10.6003C23.8798 9.786 24.7704 8.35033 24.9604 6.77049L22.9747 6.53164C22.8542 7.53393 22.2896 8.41223 21.5015 8.89145L22.5407 10.6003ZM24.9605 6.77025C25.179 4.94997 24.4857 3.19171 23.118 1.82411L21.7038 3.23837C22.6984 4.23287 23.1104 5.40168 22.9747 6.53188L24.9605 6.77025ZM23.118 1.82416C21.7565 0.462541 19.9364 -0.286651 18.0039 -0.286651V1.71335C19.4103 1.71335 20.7204 2.2549 21.7038 3.23832L23.118 1.82416ZM18.0039 -0.286651C16.0327 -0.286651 14.1724 0.488647 12.7728 1.88797L14.1869 3.30232C15.2146 2.27482 16.5675 1.71335 18.0039 1.71335V-0.286651ZM12.7727 1.88809C11.062 3.59899 9.97816 6.27252 9.95916 8.74146L11.9591 8.75685C11.9742 6.78925 12.864 4.62538 14.187 3.30221L12.7727 1.88809ZM11.5476 7.94067C11.2718 7.73984 11.1283 7.56667 11.0578 7.36608L9.17109 8.02966C9.42885 8.76253 9.92467 9.23302 10.3706 9.55764L11.5476 7.94067ZM11.0577 7.36584C10.9107 6.94815 10.9673 6.60088 11.1307 5.8592L9.17755 5.42883C9.02599 6.11661 8.81004 7.00398 9.17117 8.02991L11.0577 7.36584ZM11.1306 5.85957C11.3532 4.85127 11.711 3.28541 10.6006 1.45852L8.89151 2.4973C9.56643 3.60772 9.38727 4.47877 9.17763 5.42846L11.1306 5.85957ZM10.6004 1.45823C9.66698 -0.0763231 7.94426 -1 6.12021 -1V1C7.28545 1 8.34112 1.59246 8.89169 2.49759L10.6004 1.45823ZM6.12021 -1C4.53188 -1 3.01182 -0.305205 1.8251 0.881124L3.23909 2.29557C4.10145 1.43349 5.12983 1 6.12021 1V-1ZM1.82485 0.881382C-1.01962 3.727 -0.971331 8.36687 1.88935 11.2272L3.30347 9.81289C1.20481 7.71449 1.19456 4.34093 3.23935 2.29531L1.82485 0.881382ZM1.88918 11.227C3.57929 12.9177 6.29266 14.0229 8.73197 14.0503L8.75447 12.0504C6.81366 12.0286 4.60738 11.1172 3.30364 9.81306L1.88918 11.227ZM7.93662 12.4593C7.73802 12.7303 7.56601 12.872 7.36595 12.9425L8.03076 14.8288C8.75628 14.573 9.22464 14.0852 9.54982 13.6415L7.93662 12.4593ZM7.36555 12.9426C7.01421 13.0666 6.59161 13.0313 5.8606 12.8695L5.42837 14.8222C6.15355 14.9827 7.0886 15.1613 8.03116 14.8286L7.36555 12.9426ZM5.85956 12.8693C5.39075 12.766 4.7928 12.6305 4.11138 12.6305V14.6305C4.54418 14.6305 4.93898 14.7145 5.42942 14.8225L5.85956 12.8693ZM4.11138 12.6305C3.16802 12.6305 2.29231 12.893 1.45939 13.3994L2.4984 15.1083C3.04539 14.7758 3.56506 14.6305 4.11138 14.6305V12.6305ZM1.45922 13.3995C0.120259 14.2139 -0.770385 15.6495 -0.960417 17.2294L1.02527 17.4683C1.14583 16.4659 1.7104 15.5877 2.49856 15.1082L1.45922 13.3995ZM-0.960439 17.2296C-1.17906 19.05 -0.485342 20.8083 0.881896 22.1757L2.29616 20.7615C1.30179 19.7671 0.88958 18.5982 1.02529 17.4681L-0.960439 17.2296ZM0.881872 22.1757C2.24337 23.5373 4.06372 24.2864 5.99622 24.2864V22.2864C4.58964 22.2864 3.27939 21.7449 2.29619 20.7615L0.881872 22.1757ZM5.99622 24.2864C7.96729 24.2864 9.82774 23.5111 11.2273 22.1119L9.8132 20.6975C8.7856 21.7249 7.43251 22.2864 5.99622 22.2864V24.2864ZM11.2274 22.1118C12.9381 20.4008 14.0218 17.7274 14.041 15.2585L12.0411 15.243C12.0258 17.2107 11.1361 19.3745 9.81309 20.6976L11.2274 22.1118ZM12.4524 16.0592C12.728 16.2599 12.8718 16.4333 12.9426 16.6342L14.8289 15.9695C14.5709 15.2373 14.0754 14.7669 13.6297 14.4424L12.4524 16.0592ZM12.9424 16.6338C13.0894 17.0515 13.0329 17.399 12.8694 18.1404L14.8224 18.5712C14.9742 17.8831 15.19 16.9958 14.829 15.9699L12.9424 16.6338ZM12.8694 18.1402C12.6468 19.1485 12.289 20.7145 13.3995 22.5414L15.1086 21.5025C14.4336 20.3921 14.6127 19.521 14.8224 18.5714L12.8694 18.1402ZM13.3997 22.5416C14.3331 24.0763 16.0559 25 17.88 25V23C16.7147 23 15.659 22.4075 15.1084 21.5023L13.3997 22.5416ZM17.88 25C19.4684 25 20.9884 24.3051 22.1751 23.1189L20.7612 21.7044C19.8988 22.5664 18.8704 23 17.88 23V25ZM22.1754 23.1186C25.0194 20.2735 24.9717 15.6337 22.1109 12.7729L20.6967 14.1871C22.7955 16.2859 22.8052 19.6595 20.7609 21.7047L22.1754 23.1186ZM22.111 12.773C20.4209 11.0821 17.7074 9.97702 15.2683 9.94976L15.2459 11.9496C17.1865 11.9713 19.3928 12.8826 20.6965 14.1869L22.111 12.773ZM16.0641 11.5403C16.2621 11.2697 16.4342 11.1279 16.6343 11.0574L15.9692 9.1712C15.244 9.4269 14.7754 9.91466 14.4501 10.3591L16.0641 11.5403ZM12.317 12.3171C12.1606 12.4735 11.8394 12.4735 11.683 12.3171L10.2687 13.7313C11.2062 14.6688 12.7938 14.6688 13.7313 13.7313L12.317 12.3171ZM11.6833 12.3174C11.5089 12.1429 11.5089 11.8571 11.6833 11.6826L10.2685 10.269C9.31383 11.2244 9.31383 12.7756 10.2685 13.731L11.6833 12.3174ZM11.683 11.6829C11.7687 11.5971 11.878 11.5518 12 11.5518V9.55175C11.348 9.55175 10.7299 9.80755 10.2687 10.2687L11.683 11.6829ZM12 11.5518C12.122 11.5518 12.2312 11.597 12.3173 11.6831L13.7311 10.2685C13.27 9.80765 12.6523 9.55175 12 9.55175V11.5518ZM12.3167 11.6825C12.4911 11.857 12.491 12.1429 12.3167 12.3174L13.7316 13.731C14.6861 12.7756 14.6861 11.2245 13.7317 10.2691L12.3167 11.6825Z"
    fill="#0F2355" mask="url(#path-1-inside-1)" />
</svg>
