  <svg width="24" height="18" viewBox="0 0 24 18" xmlns="http://www.w3.org/2000/svg">
                <path d="M23 13.5H23.5C23.5 13.2239 23.2761 13 23 13V13.5ZM0.5 0C0.5 -0.276142 0.276142 -0.5 0 -0.5C-0.276142 -0.5 -0.5 -0.276142 -0.5 0H0.5ZM3 9.5H2.5C2.5 9.77614 2.72386 10 3 10V9.5ZM8 9.5V10H8.5V9.5H8ZM8 7H8.5C8.5 6.72386 8.27614 6.5 8 6.5V7ZM3 7V6.5C2.72386 6.5 2.5 6.72386 2.5 7H3ZM23 10C23.2761 10 23.5 9.77614 23.5 9.5C23.5 9.22386 23.2761 9 23 9V10ZM0.5 17V13.5H-0.5V17H0.5ZM0 14H23V13H0V14ZM22.5 13.5V17H23.5V13.5H22.5ZM0.5 13.5V0H-0.5V13.5H0.5ZM3 10H8V9H3V10ZM8.5 9.5V7H7.5V9.5H8.5ZM8 6.5H3V7.5H8V6.5ZM2.5 7V9.5H3.5V7H2.5ZM10.5 10H23V9H10.5V10Z"
                  transform="translate(0.5 1)" fill="#1144CA" />
              </svg>