<svg width="32" height="32" viewBox="0 0 32 32" fill="none" xmlns="http://www.w3.org/2000/svg">
<rect width="32" height="32.0002" fill="black" fill-opacity="0"/>
<path d="M29.9904 31.0191V8.01221H22.0096V31.0191H19.9904V8.01221H12.0096V31.0191H9.99037V8.01221H2.00956V31.0191H0V32.0002H32V31.0191H29.9904ZM9.00956 31.0191H2.99038V8.99332H9.00956V31.0191ZM19.0096 31.0191H12.9904V8.99332H19.0096V31.0191ZM29.0096 31.0191H22.9904V8.99332H29.0096V31.0191Z" fill="#0F2355"/>
<path d="M13.9906 3.99164H18.0097V7.50226H18.9905V3.01053H16.4906V0H15.5097V3.01053H13.0098V7.50226H13.9906V3.99164Z" fill="#0F2355"/>
<path d="M15.4906 5.00146H14.5098V7.002H15.4906V5.00146Z" fill="#0F2355"/>
<path d="M14.4906 10.5029H13.5098V12.0034H14.4906V10.5029Z" fill="#0F2355"/>
<path d="M16.4886 10.5029H15.5078V12.0034H16.4886V10.5029Z" fill="#0F2355"/>
<path d="M18.4906 10.5029H17.5098V12.0034H18.4906V10.5029Z" fill="#0F2355"/>
<path d="M14.4906 13.0044H13.5098V14.5048H14.4906V13.0044Z" fill="#0F2355"/>
<path d="M16.4886 13.0044H15.5078V14.5048H16.4886V13.0044Z" fill="#0F2355"/>
<path d="M18.4906 13.0044H17.5098V14.5048H18.4906V13.0044Z" fill="#0F2355"/>
<path d="M14.4906 15.5049H13.5098V17.0053H14.4906V15.5049Z" fill="#0F2355"/>
<path d="M16.4886 15.5049H15.5078V17.0053H16.4886V15.5049Z" fill="#0F2355"/>
<path d="M18.4906 15.5049H17.5098V17.0053H18.4906V15.5049Z" fill="#0F2355"/>
<path d="M14.4906 18.0054H13.5098V19.5058H14.4906V18.0054Z" fill="#0F2355"/>
<path d="M16.4886 18.0054H15.5078V19.5058H16.4886V18.0054Z" fill="#0F2355"/>
<path d="M18.4906 18.0054H17.5098V19.5058H18.4906V18.0054Z" fill="#0F2355"/>
<path d="M14.4906 20.5063H13.5098V22.0068H14.4906V20.5063Z" fill="#0F2355"/>
<path d="M16.4886 20.5063H15.5078V22.0068H16.4886V20.5063Z" fill="#0F2355"/>
<path d="M18.4906 20.5063H17.5098V22.0068H18.4906V20.5063Z" fill="#0F2355"/>
<path d="M14.4906 23.0068H13.5098V24.5073H14.4906V23.0068Z" fill="#0F2355"/>
<path d="M16.4886 23.0068H15.5078V24.5073H16.4886V23.0068Z" fill="#0F2355"/>
<path d="M18.4906 23.0068H17.5098V24.5073H18.4906V23.0068Z" fill="#0F2355"/>
<path d="M14.4906 25.5073H13.5098V27.0078H14.4906V25.5073Z" fill="#0F2355"/>
<path d="M16.4886 25.5073H15.5078V27.0078H16.4886V25.5073Z" fill="#0F2355"/>
<path d="M18.4906 25.5073H17.5098V27.0078H18.4906V25.5073Z" fill="#0F2355"/>
<path d="M14.4906 28.0088H13.5098V29.5092H14.4906V28.0088Z" fill="#0F2355"/>
<path d="M16.4886 28.0088H15.5078V29.5092H16.4886V28.0088Z" fill="#0F2355"/>
<path d="M18.4906 28.0088H17.5098V29.5092H18.4906V28.0088Z" fill="#0F2355"/>
<path d="M17.4906 5.00146H16.5098V7.002H17.4906V5.00146Z" fill="#0F2355"/>
<path d="M5.5 10.5127H4V11.4938H5.5V10.5127Z" fill="#0F2355"/>
<path d="M8 10.5127H6.5V11.4938H8V10.5127Z" fill="#0F2355"/>
<path d="M5.5 12.5137H4V13.4948H5.5V12.5137Z" fill="#0F2355"/>
<path d="M8 12.5137H6.5V13.4948H8V12.5137Z" fill="#0F2355"/>
<path d="M5.5 14.5137H4V15.4948H5.5V14.5137Z" fill="#0F2355"/>
<path d="M8 14.5137H6.5V15.4948H8V14.5137Z" fill="#0F2355"/>
<path d="M5.5 16.5146H4V17.4958H5.5V16.5146Z" fill="#0F2355"/>
<path d="M8 16.5146H6.5V17.4958H8V16.5146Z" fill="#0F2355"/>
<path d="M5.5 18.5156H4V19.4967H5.5V18.5156Z" fill="#0F2355"/>
<path d="M8 18.5156H6.5V19.4967H8V18.5156Z" fill="#0F2355"/>
<path d="M5.5 20.5156H4V21.4967H5.5V20.5156Z" fill="#0F2355"/>
<path d="M8 20.5156H6.5V21.4967H8V20.5156Z" fill="#0F2355"/>
<path d="M5.5 22.5166H4V23.4977H5.5V22.5166Z" fill="#0F2355"/>
<path d="M8 22.5166H6.5V23.4977H8V22.5166Z" fill="#0F2355"/>
<path d="M5.5 24.5166H4V25.4977H5.5V24.5166Z" fill="#0F2355"/>
<path d="M8 24.5166H6.5V25.4977H8V24.5166Z" fill="#0F2355"/>
<path d="M5.5 26.5176H4V27.4987H5.5V26.5176Z" fill="#0F2355"/>
<path d="M8 26.5176H6.5V27.4987H8V26.5176Z" fill="#0F2355"/>
<path d="M5.5 28.5181H4V29.4992H5.5V28.5181Z" fill="#0F2355"/>
<path d="M8 28.5181H6.5V29.4992H8V28.5181Z" fill="#0F2355"/>
<path d="M25.5 10.5127H24V11.4938H25.5V10.5127Z" fill="#0F2355"/>
<path d="M28 10.5127H26.5V11.4938H28V10.5127Z" fill="#0F2355"/>
<path d="M25.5 12.5137H24V13.4948H25.5V12.5137Z" fill="#0F2355"/>
<path d="M28 12.5137H26.5V13.4948H28V12.5137Z" fill="#0F2355"/>
<path d="M25.5 14.5137H24V15.4948H25.5V14.5137Z" fill="#0F2355"/>
<path d="M28 14.5137H26.5V15.4948H28V14.5137Z" fill="#0F2355"/>
<path d="M25.5 16.5146H24V17.4958H25.5V16.5146Z" fill="#0F2355"/>
<path d="M28 16.5146H26.5V17.4958H28V16.5146Z" fill="#0F2355"/>
<path d="M25.5 18.5156H24V19.4967H25.5V18.5156Z" fill="#0F2355"/>
<path d="M28 18.5156H26.5V19.4967H28V18.5156Z" fill="#0F2355"/>
<path d="M25.5 20.5156H24V21.4967H25.5V20.5156Z" fill="#0F2355"/>
<path d="M28 20.5156H26.5V21.4967H28V20.5156Z" fill="#0F2355"/>
<path d="M25.5 22.5166H24V23.4977H25.5V22.5166Z" fill="#0F2355"/>
<path d="M28 22.5166H26.5V23.4977H28V22.5166Z" fill="#0F2355"/>
<path d="M25.5 24.5166H24V25.4977H25.5V24.5166Z" fill="#0F2355"/>
<path d="M28 24.5166H26.5V25.4977H28V24.5166Z" fill="#0F2355"/>
<path d="M25.5 26.5176H24V27.4987H25.5V26.5176Z" fill="#0F2355"/>
<path d="M28 26.5176H26.5V27.4987H28V26.5176Z" fill="#0F2355"/>
<path d="M25.5 28.5181H24V29.4992H25.5V28.5181Z" fill="#0F2355"/>
<path d="M28 28.5181H26.5V29.4992H28V28.5181Z" fill="#0F2355"/>
</svg>
