 <svg width="18" height="17" viewBox="0 0 18 17" fill="none" xmlns="http://www.w3.org/2000/svg">
          <rect width="18" height="17" fill="black" fill-opacity="0" transform="translate(18 17) rotate(180)" />
          <rect width="3.52597" height="11.5718" fill="black" fill-opacity="0" transform="translate(18 11.5718) rotate(180)" />
          <rect width="3.52597" height="11.5718" fill="black" fill-opacity="0" transform="translate(18 11.5718) rotate(180)" />
          <path d="M15.0617 11.5718H17.4123C17.7355 11.5718 18 11.3127 18 10.9932V0.578527C18 0.259213 17.7366 2.38419e-05 17.4123 2.38419e-05H15.0617C14.7374 2.38419e-05 14.474 0.259248 14.474 0.578527L14.474 10.9932C14.474 11.3127 14.7386 11.5718 15.0617 11.5718Z"
            fill="#D92C6A" />
          <rect width="13.2987" height="15.8429" fill="black" fill-opacity="0" transform="translate(13.2988 17) rotate(180)" />
          <rect width="13.2987" height="15.8429" fill="black" fill-opacity="0" transform="translate(13.2988 17) rotate(180)" />
          <path d="M1.46733 11.5718C1.56197 11.5875 5.99331 11.5718 5.99331 11.5718L5.37435 13.2343C4.94727 14.3826 5.22378 16.1359 6.40879 16.7592C6.79463 16.9622 7.33372 17.0642 7.76836 16.9564C8.01761 16.8947 8.23667 16.7322 8.36724 16.5145C8.5174 16.2642 8.50189 15.9719 8.55537 15.6943C8.69096 14.9902 9.02889 14.3207 9.55219 13.8182C10.4646 12.9421 13.2988 10.4146 13.2988 10.4146L13.2988 1.15711L3.50453 1.15711C2.18294 1.15635 1.31682 2.60944 1.96866 3.74447C1.19167 4.23443 0.925922 5.26644 1.38099 6.05883C0.603961 6.54879 0.33825 7.5808 0.793313 8.37318C-0.547337 9.21856 -0.0991297 11.3109 1.46733 11.5718Z"
            fill="#D92C6A" />
        </svg>