<svg width="28" height="22" viewBox="0 0 28 22" fill="none" xmlns="http://www.w3.org/2000/svg">
<rect width="28" height="22.0002" fill="black" fill-opacity="0"/>
<path d="M27.7662 14.9901L23.3263 11.6324V10.2839C23.3263 10.099 23.2398 9.9249 23.0926 9.81358L14.3536 3.20446C14.1442 3.0461 13.8557 3.0461 13.6463 3.20446L4.90725 9.81358C4.76008 9.9249 4.67358 10.099 4.67358 10.2839V11.6324L0.233666 14.9901C0.0865028 15.1015 0 15.2756 0 15.4604V21.4113C0 21.7366 0.262948 22.0003 0.587313 22.0003H5.26089H9.93447H18.0654H22.739H27.4126C27.7369 22.0003 27.9999 21.7366 27.9999 21.4113V15.4604C27.9999 15.2756 27.9134 15.1015 27.7662 14.9901ZM15 21.0002H13V18.0002H15V21.0002ZM16 21.0002V17.5893C16 17.264 15.8244 17.0002 15.5 17.0002H12.5C12.1756 17.0002 12 17.264 12 17.5893V21.0002H9.5H6V10.5002L13.9999 4.41236L22 10.5002V21.0002H18.5H16ZM1 16.0002L5 13.0002V21.0002H1V16.0002ZM27 21.0002H23V13.0002L27 16.0002V21.0002Z" fill="#0F2355"/>
<path d="M0.940938 11.2028L14 1.32675L27.059 11.2029C27.1649 11.283 27.289 11.3217 27.4122 11.3217C27.5902 11.3217 27.7661 11.2409 27.8816 11.0873C28.0769 10.8276 28.0253 10.4583 27.7663 10.2625L14.3536 0.11877C14.1442 -0.0395899 13.8558 -0.0395899 13.6464 0.11877L0.23373 10.2624C-0.0252748 10.4583 -0.0768744 10.8276 0.118449 11.0872C0.313688 11.347 0.682101 11.3987 0.940938 11.2028Z" fill="#0F2355"/>
</svg>
