<svg width="31" height="24" viewBox="0 0 31 24" fill="none" xmlns="http://www.w3.org/2000/svg">
<rect width="31" height="24" fill="black" fill-opacity="0"/>
<path d="M7.5 6.5V7V20.5H3.5V6.5H7.5ZM23.5 6.5H27.5V20.5H23.5V7V6.5Z" stroke="#0F2355"/>
<rect x="0.5" y="20.5" width="30" height="3" stroke="#0F2355"/>
<rect x="0.5" y="3.5" width="30" height="3" stroke="#0F2355"/>
<path d="M7.80902 3.5L9.30902 0.5H21.691L23.191 3.5H7.80902Z" stroke="#0F2355"/>
<rect width="7" height="9" fill="black" fill-opacity="0" transform="translate(12 10)"/>
<rect width="7" height="9" fill="black" fill-opacity="0" transform="translate(12 10)"/>
<path d="M13.9706 19C13.4333 17.7519 13.7194 17.0367 14.1324 16.3629C14.5846 15.625 14.7012 14.8946 14.7012 14.8946C14.7012 14.8946 15.0567 15.4105 14.9145 16.2174C15.5426 15.4369 15.6611 14.1934 15.5662 13.7172C16.9859 14.8247 17.5927 17.2228 16.775 19C21.124 16.2532 17.8568 12.143 17.288 11.68C17.4776 12.143 17.5135 12.9268 17.1305 13.3071C16.4821 10.5625 14.8789 10 14.8789 10C15.0686 11.4154 14.1916 12.9632 13.346 14.1197C13.3163 13.5553 13.2848 13.1658 13.0189 12.6257C12.9592 13.651 12.2573 14.4868 12.0672 15.5141C11.8098 16.9053 12.2601 17.9239 13.9706 19Z" stroke="#0F2355"/>
</svg>
