<svg width="34" height="22" viewBox="0 0 34 22" fill="none" xmlns="http://www.w3.org/2000/svg">
<rect width="34" height="22" fill="black" fill-opacity="0"/>
<path d="M20.5 11V8.5C20.5 7.94772 20.0523 7.5 19.5 7.5H3.5C2.94772 7.5 2.5 7.94772 2.5 8.5V11" stroke="#0F2355"/>
<rect x="3.5" y="14.5" width="16" height="3" rx="0.5" stroke="#0F2355"/>
<path d="M1.5 12C1.5 11.7239 1.72386 11.5 2 11.5H3C3.27614 11.5 3.5 11.7239 3.5 12V17.5H2C1.72386 17.5 1.5 17.2761 1.5 17V12Z" stroke="#0F2355"/>
<path d="M19.5 12C19.5 11.7239 19.7239 11.5 20 11.5H21C21.2761 11.5 21.5 11.7239 21.5 12V17C21.5 17.2761 21.2761 17.5 21 17.5H19.5V12Z" stroke="#0F2355"/>
<rect x="20.25" y="17.25" width="0.5" height="1.5" stroke="#0F2355" stroke-width="0.5"/>
<rect x="2.25" y="17.25" width="0.5" height="1.5" stroke="#0F2355" stroke-width="0.5"/>
<rect x="6.5" y="0.5" width="10" height="4" rx="0.5" stroke="#0F2355"/>
<rect x="25.5" y="17.5" width="6" height="2" rx="0.5" stroke="#0F2355"/>
<path d="M26.3723 1.92929C26.4075 1.68296 26.6185 1.5 26.8673 1.5H30.1327C30.3815 1.5 30.5925 1.68296 30.6277 1.92929L31.342 6.92929C31.385 7.23051 31.1513 7.5 30.847 7.5H26.153C25.8487 7.5 25.615 7.23051 25.658 6.92929L26.3723 1.92929Z" stroke="#0F2355"/>
<mask id="path-10-inside-1" fill="white">
<path d="M28 7.5C28 7.22386 28.2239 7 28.5 7C28.7761 7 29 7.22386 29 7.5V17.5C29 17.7761 28.7761 18 28.5 18C28.2239 18 28 17.7761 28 17.5V7.5Z"/>
</mask>
<path d="M28 7.5V17.5H30V7.5H28ZM29 17.5V7.5H27V17.5H29ZM28.5 17C28.7761 17 29 17.2239 29 17.5H27C27 18.3284 27.6716 19 28.5 19V17ZM28 17.5C28 17.2239 28.2239 17 28.5 17V19C29.3284 19 30 18.3284 30 17.5H28ZM28.5 8C28.2239 8 28 7.77614 28 7.5H30C30 6.67157 29.3284 6 28.5 6V8ZM28.5 6C27.6716 6 27 6.67157 27 7.5H29C29 7.77614 28.7761 8 28.5 8V6Z" fill="#0F2355" mask="url(#path-10-inside-1)"/>
<rect x="0.5" y="19.5" width="33" height="2" rx="0.5" stroke="#0F2355"/>
<rect x="5" y="11" width="3" height="1" rx="0.5" fill="#0F2355"/>
<rect x="6" y="13" width="3" height="1" rx="0.5" transform="rotate(-90 6 13)" fill="#0F2355"/>
<rect x="10" y="11" width="3" height="1" rx="0.5" fill="#0F2355"/>
<rect x="11" y="13" width="3" height="1" rx="0.5" transform="rotate(-90 11 13)" fill="#0F2355"/>
<rect x="15" y="11" width="3" height="1" rx="0.5" fill="#0F2355"/>
<rect x="16" y="13" width="3" height="1" rx="0.5" transform="rotate(-90 16 13)" fill="#0F2355"/>
</svg>
