<svg width="25" height="15" viewBox="0 0 25 15" fill="none" xmlns="http://www.w3.org/2000/svg">
<rect width="25" height="15" fill="black" fill-opacity="0"/>
<rect x="0.5" y="9.5" width="24" height="5" rx="0.5" stroke="#0F2355"/>
<rect x="4.5" y="7.5" width="3" height="2" rx="0.5" stroke="#0F2355"/>
<rect x="16.5" y="7.5" width="3" height="2" rx="0.5" stroke="#0F2355"/>
<path d="M14 6.66667C14.0006 8 15.1429 7.789 16.2858 9.34455H19.7142C20.4762 8.01122 22 8.8 22 6.66667C22 5.58117 21.926 4.65101 21.8533 3.99915C21.8075 3.58792 21.3145 3.44182 21.0369 3.74865L19.678 5.25061C19.4003 5.55758 18.8912 5.41339 18.8156 5.00638L18.4342 2.95067C18.3311 2.39537 17.5305 2.41009 17.4479 2.9688L17.1492 4.99038C17.0884 5.40167 16.5814 5.56343 16.2937 5.26333L14.9037 3.81372C14.6037 3.50073 14.0809 3.69227 14.0611 4.12543C14.0303 4.80304 13.9996 5.71663 14 6.66667Z" stroke="#0F2355"/>
<path d="M2 6.66667C2.00057 8 3.14288 7.789 4.28576 9.34455H7.71424C8.47616 8.01122 10 8.8 10 6.66667C10 5.58117 9.92602 4.65101 9.85334 3.99915C9.80749 3.58792 9.31451 3.44182 9.0369 3.74865L7.67801 5.25061C7.40028 5.55758 6.89115 5.41339 6.81563 5.00638L6.43417 2.95067C6.33113 2.39537 5.5305 2.41009 5.44794 2.9688L5.1492 4.99038C5.08842 5.40167 4.58141 5.56343 4.29367 5.26333L2.90375 3.81372C2.60365 3.50073 2.08088 3.69227 2.06114 4.12543C2.03027 4.80304 1.9996 5.71663 2 6.66667Z" stroke="#0F2355"/>
<circle cx="6" cy="12" r="1" fill="#0F2355"/>
<circle cx="18" cy="12" r="1" fill="#0F2355"/>
</svg>
