<svg width="23" height="21" viewBox="0 0 23 21" fill="none" xmlns="http://www.w3.org/2000/svg">
<rect width="23" height="21" fill="black" fill-opacity="0"/>
<rect width="23" height="15" fill="black" fill-opacity="0" transform="translate(0 6)"/>
<rect width="23" height="15" fill="black" fill-opacity="0" transform="translate(0 6)"/>
<path d="M22.6167 12.375H21.85V7.05C21.85 6.4875 21.39 6 20.7767 6H20.585C20.01 6 19.5117 6.45 19.5117 7.05V12.375H18.3617V11.625C18.3617 10.9875 17.8633 10.5 17.2117 10.5H5.75C5.09833 10.5 4.6 10.9875 4.6 11.625V12.375H3.45V7.05C3.45 6.4875 2.99 6 2.37667 6H2.22333C1.61 6 1.15 6.45 1.15 7.05V12.375H0.383333C0.153333 12.375 0 12.525 0 12.75C0 12.975 0.153333 13.125 0.383333 13.125H0.766667V19.875C0.766667 20.1 0.92 20.25 1.15 20.25H1.53333V20.625C1.53333 20.85 1.68667 21 1.91667 21C2.14667 21 2.3 20.85 2.3 20.625V20.25H20.7V20.625C20.7 20.85 20.8533 21 21.0833 21C21.3133 21 21.4667 20.85 21.4667 20.625V20.25H21.85C22.08 20.25 22.2333 20.1 22.2333 19.875V13.125H22.6167C22.8467 13.125 23 12.975 23 12.75C23 12.525 22.8467 12.375 22.6167 12.375ZM20.6233 6.75H20.815C20.9683 6.75 21.1217 6.8625 21.1217 7.05V12.375H20.355V7.05H20.3167C20.3167 6.9 20.4317 6.75 20.6233 6.75ZM5.36667 11.625C5.36667 11.4 5.52 11.25 5.75 11.25H17.25C17.48 11.25 17.6333 11.4 17.6333 11.625V12.375H5.36667V11.625ZM1.91667 7.05C1.91667 6.8625 2.03167 6.75 2.22333 6.75H2.415C2.56833 6.75 2.68333 6.8625 2.68333 7.05V12.375H1.91667V7.05ZM11.1167 19.5H1.53333V16.5H11.1167V19.5ZM21.4667 19.5H11.8833V16.5H21.4667V19.5ZM21.4667 15.75H1.53333V13.125H21.4667V15.75Z" fill="#0F2355"/>
<rect width="0.766667" height="1.5" fill="black" fill-opacity="0" transform="translate(9.58203 17.2495)"/>
<rect width="0.766667" height="1.5" fill="black" fill-opacity="0" transform="translate(9.58203 17.2495)"/>
<path d="M9.96536 17.2495C9.73536 17.2495 9.58203 17.3995 9.58203 17.6245V18.3745C9.58203 18.5995 9.73536 18.7495 9.96536 18.7495C10.1954 18.7495 10.3487 18.5995 10.3487 18.3745V17.6245C10.3487 17.3995 10.1954 17.2495 9.96536 17.2495Z" fill="#0F2355"/>
<rect width="0.766667" height="1.5" fill="black" fill-opacity="0" transform="translate(12.6484 17.2495)"/>
<rect width="0.766667" height="1.5" fill="black" fill-opacity="0" transform="translate(12.6484 17.2495)"/>
<path d="M13.0318 17.2495C12.8018 17.2495 12.6484 17.3995 12.6484 17.6245V18.3745C12.6484 18.5995 12.8018 18.7495 13.0318 18.7495C13.2618 18.7495 13.4151 18.5995 13.4151 18.3745V17.6245C13.4151 17.3995 13.2618 17.2495 13.0318 17.2495Z" fill="#0F2355"/>
<rect width="14.5667" height="8.25" fill="black" fill-opacity="0" transform="translate(4.2168)"/>
<rect width="14.5667" height="8.25" fill="black" fill-opacity="0" transform="translate(4.2168)"/>
<path d="M18.4001 0H4.60013C4.37013 0 4.2168 0.15 4.2168 0.375V7.875C4.2168 8.1 4.37013 8.25 4.60013 8.25H18.4001C18.6301 8.25 18.7835 8.1 18.7835 7.875V0.375C18.7835 0.15 18.6301 0 18.4001 0ZM18.0168 7.5H4.98346V0.75H18.0168V7.5Z" fill="#0F2355"/>
<rect width="1.15" height="0.75" fill="black" fill-opacity="0" transform="translate(16.1016 6)"/>
<rect width="1.15" height="0.75" fill="black" fill-opacity="0" transform="translate(16.1016 6)"/>
<path d="M16.8682 6H16.4849C16.2549 6 16.1016 6.15 16.1016 6.375C16.1016 6.6 16.2549 6.75 16.4849 6.75H16.8682C17.0982 6.75 17.2516 6.6 17.2516 6.375C17.2516 6.15 17.0982 6 16.8682 6Z" fill="#0F2355"/>
<rect width="1.91667" height="1.875" fill="black" fill-opacity="0" transform="translate(5.75 1.49951)"/>
<rect width="1.91667" height="1.875" fill="black" fill-opacity="0" transform="translate(5.75 1.49951)"/>
<path d="M7.55167 1.61201C7.39833 1.46201 7.16833 1.46201 7.015 1.61201L5.865 2.73701C5.71167 2.88701 5.71167 3.11201 5.865 3.26201C6.01833 3.41201 6.24833 3.41201 6.40167 3.26201L7.55167 2.13701C7.705 1.98701 7.705 1.76201 7.55167 1.61201Z" fill="#0F2355"/>
<rect width="3.45" height="3.375" fill="black" fill-opacity="0" transform="translate(6.13477 1.49951)"/>
<rect width="3.45" height="3.375" fill="black" fill-opacity="0" transform="translate(6.13477 1.49951)"/>
<path d="M9.46977 1.61201C9.31643 1.46201 9.08643 1.46201 8.9331 1.61201L6.24977 4.23701C6.09643 4.38701 6.09643 4.61201 6.24977 4.76201C6.4031 4.91201 6.6331 4.91201 6.78643 4.76201L9.46977 2.13701C9.6231 1.98701 9.6231 1.76201 9.46977 1.61201Z" fill="#0F2355"/>
</svg>
