<svg width="29" height="24" viewBox="0 0 29 24" fill="none" xmlns="http://www.w3.org/2000/svg">
<rect width="28.0003" height="24.0001" fill="black" fill-opacity="0"/>
<rect width="27.9844" height="8.1602" fill="black" fill-opacity="0" transform="translate(0.015625 8.59473)"/>
<rect width="27.9844" height="8.1602" fill="black" fill-opacity="0" transform="translate(0.015625 8.59473)"/>
<path d="M27.5336 15.8493H21.9129C21.6664 11.6102 17.9271 8.36779 13.5609 8.60717C9.53917 8.82765 6.32884 11.9445 6.10176 15.8493H0.482031C0.224458 15.8493 0.015625 16.052 0.015625 16.3021C0.015625 16.5522 0.224458 16.7549 0.482031 16.7549H27.5336C27.7912 16.7549 28 16.5522 28 16.3021C28 16.052 27.7912 15.8493 27.5336 15.8493ZM7.03457 15.8493C7.28148 12.285 10.3285 9.51487 14.0078 9.50961C17.6868 9.51538 20.7333 12.2854 20.9801 15.8493H7.03457Z" fill="#0F2355"/>
<rect width="16.3242" height="0.905664" fill="black" fill-opacity="0" transform="translate(5.61328 17.6602)"/>
<rect width="16.3242" height="0.905664" fill="black" fill-opacity="0" transform="translate(5.61328 17.6602)"/>
<path d="M21.4711 17.6602H6.07969C5.82211 17.6602 5.61328 17.8629 5.61328 18.113C5.61328 18.3631 5.82211 18.5658 6.07969 18.5658H21.4711C21.7287 18.5658 21.9375 18.3631 21.9375 18.113C21.9375 17.8629 21.7287 17.6602 21.4711 17.6602Z" fill="#0F2355"/>
<rect width="13.5258" height="0.905664" fill="black" fill-opacity="0" transform="translate(7.01172 19.4717)"/>
<rect width="13.5258" height="0.905664" fill="black" fill-opacity="0" transform="translate(7.01172 19.4717)"/>
<path d="M20.0711 19.4717H7.47812C7.22055 19.4717 7.01172 19.6744 7.01172 19.9245C7.01172 20.1746 7.22055 20.3773 7.47812 20.3773H20.0711C20.3287 20.3773 20.5375 20.1746 20.5375 19.9245C20.5375 19.6744 20.3287 19.4717 20.0711 19.4717Z" fill="#0F2355"/>
<rect width="10.7273" height="0.905664" fill="black" fill-opacity="0" transform="translate(8.41211 21.2832)"/>
<rect width="10.7273" height="0.905664" fill="black" fill-opacity="0" transform="translate(8.41211 21.2832)"/>
<path d="M18.673 21.2832H8.87852C8.62094 21.2832 8.41211 21.486 8.41211 21.736C8.41211 21.9861 8.62094 22.1889 8.87852 22.1889H18.673C18.9306 22.1889 19.1395 21.9861 19.1395 21.736C19.1395 21.486 18.9306 21.2832 18.673 21.2832Z" fill="#0F2355"/>
<rect width="6.99609" height="0.905664" fill="black" fill-opacity="0" transform="translate(10.2773 23.0942)"/>
<rect width="6.99609" height="0.905664" fill="black" fill-opacity="0" transform="translate(10.2773 23.0942)"/>
<path d="M16.807 23.0942H10.7438C10.4862 23.0942 10.2773 23.297 10.2773 23.5471C10.2773 23.7971 10.4862 23.9999 10.7438 23.9999H16.807C17.0646 23.9999 17.2734 23.7971 17.2734 23.5471C17.2734 23.297 17.0646 23.0942 16.807 23.0942Z" fill="#0F2355"/>
<rect width="5.59688" height="0.905664" fill="black" fill-opacity="0" transform="translate(0.015625 14.4907)"/>
<rect width="5.59688" height="0.905664" fill="black" fill-opacity="0" transform="translate(0.015625 14.4907)"/>
<path d="M5.14609 14.4907H0.482031C0.224458 14.4907 0.015625 14.6935 0.015625 14.9436C0.015625 15.1936 0.224458 15.3964 0.482031 15.3964H5.14609C5.40367 15.3964 5.6125 15.1936 5.6125 14.9436C5.6125 14.6935 5.40367 14.4907 5.14609 14.4907Z" fill="#0F2355"/>
<rect width="6.0953" height="2.72849" fill="black" fill-opacity="0" transform="translate(0 9.50391)"/>
<rect width="6.0953" height="2.72849" fill="black" fill-opacity="0" transform="translate(0 9.50391)"/>
<path d="M5.80417 11.3599C5.79373 11.3557 5.78312 11.352 5.7724 11.3486L0.641926 9.53728C0.403243 9.4432 0.131211 9.55483 0.0343737 9.78656C-0.0625222 10.0183 0.0524469 10.2824 0.29113 10.3764C0.301566 10.3806 0.312177 10.3843 0.322904 10.3877L5.45337 12.199C5.69206 12.2931 5.96409 12.1815 6.06093 11.9497C6.15782 11.718 6.04285 11.4539 5.80417 11.3599Z" fill="#0F2355"/>
<rect width="2.32956" height="4.06967" fill="black" fill-opacity="0" transform="translate(8.41406 3.17578)"/>
<rect width="2.32956" height="4.06967" fill="black" fill-opacity="0" transform="translate(8.41406 3.17578)"/>
<path d="M10.7058 6.6142L9.30658 3.44438C9.2017 3.21592 8.92599 3.1133 8.69069 3.21513C8.46017 3.31492 8.35319 3.57462 8.44933 3.80121L9.84854 6.97103C9.92206 7.13751 10.0906 7.24545 10.2772 7.24545C10.3404 7.24573 10.403 7.23322 10.4609 7.20877C10.6976 7.11022 10.8072 6.84407 10.7058 6.6142Z" fill="#0F2355"/>
<rect width="2.33213" height="4.07554" fill="black" fill-opacity="0" transform="translate(16.8066 3.16992)"/>
<rect width="2.33213" height="4.07554" fill="black" fill-opacity="0" transform="translate(16.8066 3.16992)"/>
<path d="M18.8561 3.20665C18.6194 3.10816 18.3452 3.21457 18.2437 3.44439L16.8445 6.61421C16.743 6.84402 16.8526 7.11023 17.0893 7.20878C17.1473 7.23323 17.2099 7.24568 17.2731 7.24546C17.4597 7.24546 17.6282 7.13751 17.7017 6.97104L19.1009 3.80122C19.2024 3.57141 19.0928 3.3052 18.8561 3.20665Z" fill="#0F2355"/>
<rect width="6.06369" height="3.6228" fill="black" fill-opacity="0" transform="translate(21.9355 8.60352)"/>
<rect width="6.06369" height="3.6228" fill="black" fill-opacity="0" transform="translate(21.9355 8.60352)"/>
<path d="M27.9422 8.83959C27.8188 8.62002 27.5354 8.53913 27.3093 8.65891L22.1788 11.3759C21.9527 11.4956 21.8692 11.7707 21.9925 11.9902C22.0743 12.1359 22.2317 12.2265 22.4027 12.2263C22.4806 12.2264 22.5573 12.2074 22.6256 12.1711L27.7561 9.45408C27.9822 9.33431 28.0656 9.05921 27.9422 8.83959Z" fill="#0F2355"/>
<rect width="5.58539" height="5.42287" fill="black" fill-opacity="0" transform="translate(2.82031 4.08105)"/>
<rect width="5.58539" height="5.42287" fill="black" fill-opacity="0" transform="translate(2.82031 4.08105)"/>
<path d="M8.27479 8.73652L3.61073 4.2082C3.42545 4.03442 3.13021 4.03941 2.95123 4.21929C2.77667 4.39477 2.77667 4.67297 2.95123 4.8485L7.61529 9.37682C7.80057 9.55054 8.09586 9.54556 8.27479 9.36567C8.44934 9.1902 8.44934 8.91199 8.27479 8.73652Z" fill="#0F2355"/>
<rect width="0.932813" height="6.79248" fill="black" fill-opacity="0" transform="translate(13.541)"/>
<rect width="0.932813" height="6.79248" fill="black" fill-opacity="0" transform="translate(13.541)"/>
<path d="M14.0074 0C13.7498 0 13.541 0.202756 13.541 0.452832V6.33965C13.541 6.58973 13.7498 6.79248 14.0074 6.79248C14.265 6.79248 14.4738 6.58973 14.4738 6.33965V0.452832C14.4738 0.202756 14.265 0 14.0074 0Z" fill="#0F2355"/>
<rect width="5.6025" height="5.43945" fill="black" fill-opacity="0" transform="translate(19.6016 4.07568)"/>
<rect width="5.6025" height="5.43945" fill="black" fill-opacity="0" transform="translate(19.6016 4.07568)"/>
<path d="M25.0675 4.20826C24.8854 4.03149 24.5901 4.03149 24.408 4.20826L19.7439 8.73659C19.5587 8.91036 19.5535 9.197 19.7325 9.37689C19.9115 9.55678 20.2067 9.56176 20.392 9.38798C20.3959 9.38436 20.3997 9.38063 20.4034 9.37689L25.0675 4.84857C25.2496 4.67174 25.2496 4.3851 25.0675 4.20826Z" fill="#0F2355"/>
<rect width="5.59688" height="0.905664" fill="black" fill-opacity="0" transform="translate(22.4043 14.4907)"/>
<rect width="5.59688" height="0.905664" fill="black" fill-opacity="0" transform="translate(22.4043 14.4907)"/>
<path d="M27.5348 14.4907H22.8707C22.6131 14.4907 22.4043 14.6935 22.4043 14.9436C22.4043 15.1936 22.6131 15.3964 22.8707 15.3964H27.5348C27.7923 15.3964 28.0012 15.1936 28.0012 14.9436C28.0012 14.6935 27.7923 14.4907 27.5348 14.4907Z" fill="#0F2355"/>
</svg>
