<svg width="20" height="26" viewBox="0 0 20 26" fill="none" xmlns="http://www.w3.org/2000/svg">
<rect width="20" height="26" fill="black" fill-opacity="0"/>
<rect width="0.999997" height="1.01562" fill="black" fill-opacity="0" transform="translate(14 22.8008)"/>
<rect width="0.999997" height="1.01562" fill="black" fill-opacity="0" transform="translate(14 22.8008)"/>
<path d="M14.5 22.8008C14.224 22.8008 14 23.0283 14 23.3086C14 23.5889 14.224 23.8164 14.5 23.8164C14.776 23.8164 15 23.5889 15 23.3086C15 23.0283 14.776 22.8008 14.5 22.8008Z" fill="#0F2355"/>
<rect width="20" height="26" fill="black" fill-opacity="0"/>
<rect width="20" height="26" fill="black" fill-opacity="0"/>
<path d="M19.2214 18.2703C18.7121 17.5095 17.9977 16.9284 17.1553 16.5897L13.4874 15.1155C14.4466 14.1678 14.9999 12.8615 14.9999 11.4765C14.9999 10.929 14.9156 10.3957 14.7493 9.88501C14.902 9.79574 14.9999 9.62938 14.9999 9.44529V7.88941L15.8726 6.11679L16.7235 5.6847C16.893 5.59867 16.9999 5.42282 16.9999 5.23051V3.70702C16.9999 3.48846 16.8622 3.29443 16.658 3.22526L15.2361 2.74391L11.8017 0.102933C11.7149 0.0361562 11.6089 0 11.4999 0H8.49993C8.39093 0 8.28498 0.0361562 8.19813 0.102933L4.76374 2.74386L3.34184 3.22521C3.13764 3.29433 2.99994 3.48841 2.99994 3.70697V5.23041C2.99994 5.42277 3.10694 5.59857 3.27634 5.68459L4.12729 6.11669L4.99994 7.88931V9.44529C4.99994 9.62938 5.09779 9.79568 5.25054 9.88501C5.08409 10.3955 4.99994 10.9287 4.99994 11.4765C4.99994 12.8614 5.55324 14.1677 6.51203 15.1151L2.84389 16.5898C2.00164 16.9284 1.28735 17.5095 0.778198 18.2703C0.269049 19.031 0 19.9193 0 20.8391V25.4921C0 25.7726 0.223899 26 0.499999 26H9.49933C9.49973 26 9.50008 26 9.50048 26C9.50083 26 9.50123 26 9.50158 26H10.4984C10.4988 26 10.4992 26 10.4995 26C10.4999 26 10.5003 26 10.5007 26H19.5C19.7761 26 20 25.7726 20 25.4921V20.8396C19.9999 19.9196 19.7307 19.0312 19.2214 18.2703ZM15.0586 16.8393L11.9999 21.9857V20.448C11.9999 20.1201 11.8933 19.7954 11.6999 19.534L10.8174 18.3388C11.2279 18.0667 11.4999 17.5964 11.4999 17.0625V16.3212C11.8724 16.2026 12.2283 16.0407 12.5637 15.8365L15.0586 16.8393ZM4.94714 5.51118C4.89874 5.41292 4.82029 5.33319 4.72349 5.28408L3.99989 4.91663V4.07305L5.15799 3.68097C5.20969 3.66345 5.25824 3.6375 5.30169 3.60409L8.66783 1.01562H11.332L14.6981 3.60409C14.7415 3.6375 14.7901 3.66345 14.8418 3.68097L15.9999 4.07305V4.91663L15.2763 5.28408C15.1795 5.33324 15.101 5.41292 15.0526 5.51118L14.1909 7.2617H5.80894L4.94714 5.51118ZM5.99993 8.27733H13.9999V9.07754L12.6924 9.51431C11.8196 9.80548 10.9119 9.95311 9.99438 9.95311C9.53463 9.95311 9.07208 9.91548 8.61958 9.84129C8.16798 9.76725 7.71698 9.65527 7.27948 9.50862L6.31373 9.18402C6.27073 9.13309 6.21713 9.08993 6.15398 9.0586C6.10408 9.03386 6.05213 9.01873 5.99993 9.01173V8.27733ZM5.99993 11.4765C5.99993 11.042 6.06638 10.6192 6.19698 10.2145L6.96568 10.473C7.45368 10.6365 7.95648 10.7613 8.46023 10.844C8.96523 10.9268 9.48143 10.9688 9.99442 10.9688C11.0181 10.9688 12.0308 10.8041 13.0047 10.4792L13.8027 10.2128C13.9336 10.618 14 11.0415 14 11.4766C14 12.8244 13.3448 14.0794 12.2465 14.8381C12.2388 14.843 12.2313 14.8484 12.2238 14.8537C11.8165 15.1315 11.3677 15.3283 10.8893 15.4385C10.3101 15.5721 9.68998 15.5721 9.11058 15.4385C8.62948 15.3277 8.17768 15.129 7.76733 14.8479C6.66063 14.0907 5.99993 12.8304 5.99993 11.4765ZM10.4999 16.529V17.0625C10.4999 17.3425 10.2756 17.5703 9.99992 17.5703C9.86652 17.5703 9.74098 17.5174 9.64653 17.4214C9.55198 17.3255 9.49993 17.198 9.49993 17.0625V16.529C9.66578 16.5458 9.83267 16.5547 9.99992 16.5547C10.1672 16.5547 10.3341 16.5458 10.4999 16.529ZM7.43568 15.836C7.77148 16.0405 8.12758 16.2026 8.49993 16.3212V17.0625C8.49993 17.4692 8.65598 17.8518 8.93943 18.1396C9.01418 18.2155 9.09553 18.2821 9.18193 18.3395L8.30018 19.5336C8.10658 19.7954 7.99993 20.1201 7.99993 20.448V21.9859L4.94124 16.8389L7.43568 15.836ZM0.999947 24.9843V20.8391C0.999947 19.3715 1.8682 18.0743 3.21189 17.5341L3.99844 17.2179L8.03038 24.0026L8.61398 24.9843H0.999947ZM10.9999 23.6682L10.2177 24.9843H9.78207L8.99988 23.6686V20.448C8.99988 20.3387 9.03528 20.2307 9.09988 20.1434L9.99988 18.9245L10.9001 20.1437C10.9645 20.2307 10.9999 20.3387 10.9999 20.448V23.6682ZM11.3858 24.9843L16.0015 17.2183L16.7874 17.5342C18.1315 18.0744 18.9999 19.3719 18.9999 20.8396V24.9843H11.3858Z" fill="#0F2355"/>
<rect width="3.99999" height="4.06249" fill="black" fill-opacity="0" transform="translate(8 2.18359)"/>
<rect width="3.99999" height="4.06249" fill="black" fill-opacity="0" transform="translate(8 2.18359)"/>
<path d="M9.99999 2.18359C8.8972 2.18359 8 3.09481 8 4.21484C8 5.33487 8.8972 6.24609 9.99999 6.24609C11.1028 6.24609 12 5.33487 12 4.21484C12 3.09481 11.1028 2.18359 9.99999 2.18359ZM9.99999 5.23046C9.4486 5.23046 9 4.77485 9 4.21484C9 3.65483 9.44855 3.19922 9.99999 3.19922C10.5514 3.19922 11 3.65483 11 4.21484C11 4.77485 10.5514 5.23046 9.99999 5.23046Z" fill="#0F2355"/>
<rect width="1.99999" height="1.01562" fill="black" fill-opacity="0" transform="translate(16 22.8008)"/>
<rect width="1.99999" height="1.01562" fill="black" fill-opacity="0" transform="translate(16 22.8008)"/>
<path d="M17.5 22.8008H16.5C16.2239 22.8008 16 23.0281 16 23.3086C16 23.5891 16.2239 23.8164 16.5 23.8164H17.5C17.7761 23.8164 18 23.5891 18 23.3086C18 23.0281 17.7761 22.8008 17.5 22.8008Z" fill="#0F2355"/>
</svg>
