<svg width="27" height="20" viewBox="0 0 27 20" fill="none" xmlns="http://www.w3.org/2000/svg">
<rect width="27" height="20" fill="black" fill-opacity="0"/>
<path d="M26.7163 8.95218L11.4614 0.334992C10.2847 -0.330738 8.6742 0.0281689 7.89854 1.12452L4.94328 5.29713C4.65324 5.70713 4.49999 6.1877 4.49999 6.68781C4.49999 7.55177 4.97022 8.35651 5.72658 8.78765L8.94388 10.6227L8.3627 11.3887C8.04793 11.803 7.87491 12.3167 7.87491 12.8348C7.87491 13.3675 8.07245 13.8687 8.39065 14.283L7.53436 15.5555H3.37497V13.8834C3.37497 13.576 3.12338 13.3333 2.81246 13.3333H0.562512C0.251593 13.3333 0 13.576 0 13.8834V19.444C0 19.7513 0.251593 20 0.562512 20H2.81251C3.12343 20 3.37502 19.7513 3.37502 19.444V18.8889H7.53441C8.66545 18.8889 9.71517 18.334 10.3425 17.4039L11.2645 16.0367C11.442 16.0747 11.6211 16.1093 11.8042 16.1093C12.6995 16.1093 13.5422 15.6379 14.0025 14.8788L14.6206 13.8605L19.4078 16.591C19.494 16.6404 19.5912 16.6654 19.689 16.6654C19.7434 16.6654 19.7978 16.6578 19.851 16.642C19.9994 16.5975 20.1229 16.4948 20.1922 16.358L20.6086 15.5336C20.677 15.5387 20.7427 15.5533 20.8123 15.5533C22.9832 15.5533 24.7498 13.8069 24.7498 11.6609C24.7498 11.4252 24.7146 11.1823 24.6622 10.9341L26.6889 9.93244C26.8746 9.84067 26.9937 9.65552 26.9998 9.45026C27.0052 9.24541 26.8965 9.05375 26.7163 8.95218ZM2.25 18.8889H1.12497V14.4445H2.24994V18.8889H2.25ZM9.40641 16.7898C8.98839 17.4094 8.28856 17.7794 7.53436 17.7794H3.37497V16.6683H7.53436C7.9123 16.6683 8.26219 16.4833 8.47038 16.1735L9.24931 15.0192L10.2153 15.5915L9.40641 16.7898ZM13.0379 14.3115C12.6446 14.9577 11.7191 15.1877 11.0643 14.7987L9.6377 13.9534C9.24441 13.7207 8.99994 13.2943 8.99994 12.8412C8.99994 12.5624 9.09333 12.2862 9.2625 12.0627L9.92505 11.1903L13.646 13.3106L13.0379 14.3115ZM19.4527 15.3369L6.28852 7.83525C5.8793 7.60197 5.62497 7.16687 5.62497 6.69973C5.62497 6.429 5.70792 6.16911 5.86501 5.94723L7.27728 3.95505L21.1973 11.8865L19.4527 15.3369ZM21.179 14.4094L22.3564 12.0806L23.606 11.4636C23.6122 11.5318 23.6248 11.6023 23.6248 11.6683C23.6248 13.0758 22.5552 14.2297 21.179 14.4094ZM21.9564 11.036L7.92506 3.04124L8.82032 1.77843C9.11643 1.36067 9.60089 1.11109 10.1173 1.11109C10.3925 1.11109 10.6644 1.18218 10.9033 1.31723L25.2458 9.41187L21.9564 11.036Z" fill="#0F2355"/>
<path d="M18.5625 13.3333C18.8732 13.3333 19.125 13.0846 19.125 12.7777C19.125 12.4709 18.8732 12.2222 18.5625 12.2222C18.2518 12.2222 18 12.4709 18 12.7777C18 13.0846 18.2518 13.3333 18.5625 13.3333Z" fill="#0F2355"/>
</svg>
