<svg width="25" height="15" viewBox="0 0 25 15" fill="none" xmlns="http://www.w3.org/2000/svg">
<path d="M21.85 6.2031H9.76763C9.85256 6.01032 9.89995 5.79594 9.89995 5.56872V5.02497C9.89995 4.16401 9.22496 3.48433 8.36994 3.48433H5.12998C4.27496 3.48433 3.59997 4.16401 3.59997 5.02497V5.56872C3.59997 5.79594 3.64736 6.01026 3.73229 6.2031H2.70002V0.906257C2.70002 0.407808 2.29502 0 1.80001 0H0.900005C0.404994 0 0 0.407808 0 0.906257V6.65626V14.0937C0 14.5922 0.404994 15 0.900005 15H1.80001C2.29502 15 2.70002 14.5922 2.70002 14.0937V11.2031H6.75001H22.3V14.0937C22.3 14.5922 22.705 15 23.2 15H24.1C24.595 15 25 14.5922 25 14.0937V9.37497C25 7.60781 23.605 6.2031 21.85 6.2031ZM4.49997 5.56872V5.02497C4.49997 4.66246 4.76997 4.39059 5.12998 4.39059H8.36999C8.73 4.39059 9 4.66246 9 5.02497V5.56872C9 5.93123 8.73 6.2031 8.36999 6.2031H6.75001H5.12998C4.77002 6.2031 4.49997 5.93123 4.49997 5.56872ZM0.900005 0.906257H1.80001V6.20315H0.900005V0.906257ZM2.24999 10.2968C1.97999 10.2968 1.80001 10.4781 1.80001 10.7499V14.0937H0.900005V7.10936H2.24999H5.12998H6.29998V10.2968H2.24999ZM24.1 14.0937H23.2V10.75C23.2 10.4781 23.02 10.2969 22.75 10.2969H7.19999V7.10936H8.36999H21.85C23.11 7.10936 24.0999 8.10626 24.0999 9.37497L24.1 14.0937Z" fill="#0F2355"/>
</svg>
