<svg width="34" height="21" viewBox="0 0 34 21" fill="none" xmlns="http://www.w3.org/2000/svg">
<rect width="33.5" height="19.5" fill="black" fill-opacity="0" transform="translate(0 1)"/>
<path d="M1.5 17.5C2.18809 17.5 3.64886 16.6819 4.81272 15.9463C5.21567 15.6916 5.74419 15.7417 6.11739 16.0383C6.86283 16.6307 8.18141 17.5 9.5 17.5C10.1881 17.5 11.6489 16.6819 12.8127 15.9463C13.2157 15.6916 13.7442 15.7417 14.1174 16.0383C14.8628 16.6307 16.1814 17.5 17.5 17.5C18.1881 17.5 19.6489 16.6819 20.8127 15.9463C21.2157 15.6916 21.7442 15.7417 22.1174 16.0383C22.8628 16.6307 24.1814 17.5 25.5 17.5C26.1881 17.5 27.6489 16.6819 28.8127 15.9463C29.2157 15.6916 29.7442 15.7417 30.1174 16.0383C30.8628 16.6307 32.1814 17.5 33.5 17.5" stroke="#0F2355"/>
<path d="M1.5 20.5C2.18809 20.5 3.64886 19.6819 4.81272 18.9463C5.21567 18.6916 5.74419 18.7417 6.11739 19.0383C6.86283 19.6307 8.18141 20.5 9.5 20.5C10.1881 20.5 11.6489 19.6819 12.8127 18.9463C13.2157 18.6916 13.7442 18.7417 14.1174 19.0383C14.8628 19.6307 16.1814 20.5 17.5 20.5C18.1881 20.5 19.6489 19.6819 20.8127 18.9463C21.2157 18.6916 21.7442 18.7417 22.1174 19.0383C22.8628 19.6307 24.1814 20.5 25.5 20.5C26.1881 20.5 27.6489 19.6819 28.8127 18.9463C29.2157 18.6916 29.7442 18.7417 30.1174 19.0383C30.8628 19.6307 32.1814 20.5 33.5 20.5" stroke="#0F2355"/>
<path d="M19 17V12C19 11.4477 18.5523 11 18 11H4.5C3.94772 11 3.5 11.4477 3.5 12V17" stroke="#0F2355"/>
<rect x="12.5" y="9.5" width="1" height="9" rx="0.5" fill="#0F2355"/>
<rect x="16.5" y="9.5" width="1" height="11" rx="0.5" fill="#0F2355"/>
<rect x="13.5" y="12.5" width="3" height="1" fill="#0F2355"/>
<rect x="13.5" y="14.5" width="3" height="1" fill="#0F2355"/>
<rect x="4.5" y="6.5" width="1" height="4" fill="#0F2355"/>
<rect x="6.5" y="6.5" width="1" height="4" fill="#0F2355"/>
<rect x="15.5" y="6.5" width="1" height="4" fill="#0F2355"/>
<rect x="12.5" y="7.5" width="1" height="4" transform="rotate(90 12.5 7.5)" fill="#0F2355"/>
<path d="M17.3834 6H4.61661C3.54117 6 3.22376 4.53465 4.20281 4.08963L10.5862 1.18809C10.8491 1.06858 11.1509 1.06858 11.4138 1.18809L17.7972 4.08963C18.7762 4.53465 18.4588 6 17.3834 6Z" stroke="#0F2355"/>
</svg>
